<?xml version="1.0" encoding="UTF-8"?>
<svg width="1500" height="1e3" version="1.1" viewBox="0 0 1500 1e3" xmlns="http://www.w3.org/2000/svg">
 <rect width="1500" height="1e3" style="fill:#f02424"/>
 <path d="m0 0v83.527l624.71 416.47-624.71 416.47v83.527h125.29l624.71-416.47 624.71 416.47h125.29v-83.527l-624.71-416.47 624.71-416.47v-83.527h-125.29l-624.71 416.47-624.71-416.47z" style="color-rendering:auto;color:#000000;dominant-baseline:auto;fill:#fff;font-feature-settings:normal;font-variant-alternates:normal;font-variant-caps:normal;font-variant-east-asian:normal;font-variant-ligatures:normal;font-variant-numeric:normal;font-variant-position:normal;font-variation-settings:normal;image-rendering:auto;inline-size:0;isolation:auto;mix-blend-mode:normal;shape-margin:0;shape-padding:0;shape-rendering:auto;solid-color:#000000;stop-color:#000000;text-decoration-color:#000000;text-decoration-line:none;text-decoration-style:solid;text-indent:0;text-orientation:mixed;text-transform:none;white-space:normal"/>
 <path d="m0 0v62.496l656.25 437.5-656.25 437.5v62.496h93.744l656.26-437.5 656.26 437.5h93.744v-62.496l-656.25-437.5 656.25-437.5v-62.496h-93.744l-656.26 437.5-656.26-437.5z" style="color-rendering:auto;color:#000000;dominant-baseline:auto;fill:#0466cc;font-feature-settings:normal;font-variant-alternates:normal;font-variant-caps:normal;font-variant-east-asian:normal;font-variant-ligatures:normal;font-variant-numeric:normal;font-variant-position:normal;font-variation-settings:normal;image-rendering:auto;inline-size:0;isolation:auto;mix-blend-mode:normal;shape-margin:0;shape-padding:0;shape-rendering:auto;solid-color:#000000;stop-color:#000000;text-decoration-color:#000000;text-decoration-line:none;text-decoration-style:solid;text-indent:0;text-orientation:mixed;text-transform:none;white-space:normal"/>
 <path d="m463.72 149.58v554.59c0 63.965 52.502 84.721 78.7 84.721h122.21c59.213 1.6137 62.622 44.578 85.368 82.342 22.746-37.763 26.156-80.728 85.368-82.342h122.21c26.198 0 78.698-20.755 78.698-84.721v-554.59z" style="fill:#fff"/>
 <path d="m1016.2 174.2v561.29c-9.4025 27.443-39.113 41.473-66.652 38.106h-420.08c-23.997-5.5062-48.876-28.012-45.389-54.389v-545.01h532.13z" style="stroke-width:.99999"/>
 <path d="m485.03 529.82m537.33-360.42c0-0.80092 0.1147-1.6019-0.099-2.3874h-138.52c-134.23 0-268.46 0-402.69-0.0154h-2.9128l0.01 2.0254c-0.0155 38.476-0.0378 76.951-0.061 115.42l-0.13002 162.51c-0.0155 0.20024-0.031 0.40814-0.0378 0.60838 0.01 0.25415 0.0232 0.50061 0.0378 0.75471l-0.092 112.2c0 2.9342-0.01 5.8684-0.01 8.8026-0.0533 31.475-0.11461 62.943-0.16054 94.418 0 2.1486-0.22167 4.2973 0.0533 6.446 0.01 4.2896 0.01 8.5716 0.0155 12.861v1.2014c0.01 3.8352 0.0155 7.6782 0.0155 11.521 0 2.888-0.0232 5.7683-0.031 8.6486l0.38987 6.0609c0.77218 6.5615 2.1636 12.984 4.4113 19.199 0.48162 1.34 0.99386 2.6647 1.5443 3.9662 0.22177 0.53138 0.4511 1.0628 0.68043 1.5865 4.029 9.1414 9.5947 17.274 17.117 24.082 8.1804 7.4086 17.408 12.114 27.591 14.294 4.2507 0.91646 8.6695 1.3863 13.241 1.4248 6.055 0.0539 12.11-0.0231 18.157-0.0385 37.675-0.10012 75.351-0.16175 113.02-0.33886 6.032-0.0231 11.949 0.59297 17.813 1.933 10.313 2.3489 19.862 6.4229 28.394 12.792 9.2048 6.8773 16.177 15.649 21.628 25.73 3.1957 5.8992 5.7491 12.099 8.6237 18.144 0.25229 0.53909 0.32873 1.2014 0.97864 1.5557 0.1835-0.46211 0.35925-0.91646 0.54275-1.3631 2.1177-5.3062 3.8838-10.751 6.1238-16.011 5.8256-13.701 14.977-24.421 27.92-31.76 7.798-4.4129 16.162-7.2238 24.877-9.1029 4.977-1.0705 9.9847-1.625 15.092-1.5711 10.153 0.11553 20.306 8e-3 30.458-8e-3 33.019-0.0616 66.047-0.13095 99.074-0.16945 4.5336-8e-3 9.0137-0.40815 13.44-1.2168 2.1713-0.39273 4.3348-0.88561 6.4831-1.4863 16.238-4.5129 28.57-13.708 36.666-27.863 0.8716-1.5171 1.6896-3.0882 2.4542-4.7209 0.2599-0.5391 0.5122-1.0936 0.7568-1.6481 0.3517-0.79321 0.6805-1.5865 0.9939-2.3874 3.5397-8.8565 5.1987-18.16 5.7339-27.702 0.4969-8.9258 0.2523-17.859 0.2599-26.793 0.061-70.29 0.061-140.58 0.077-210.87 0-2.8341 0.045-5.6681 0.077-8.5022-0.031-0.73934-0.069-1.471-0.069-2.2103 0.015-96.674 0.045-193.35 0.061-290.02zm-544.44 350.98 0.0688-71.453c0.01 0.27723 0.0233 0.56218 0.0233 0.8394-0.031 23.543-0.061 47.078-0.092 70.613zm6.8577 49.296m0.25229-39.854m-0.7187-1.1706c0.0232-0.5545 0-1.109 0-1.6635 0.0232-77.067-0.16054-154.14 0.13768-231.21 0.15288-40.162 0.0533-80.317 0.22167-120.48 0-0.36196 0.0155-0.73161 0.0155-1.0936v-0.0154c-0.01-0.60841 0.28291-0.90876 0.8868-0.90106 0.42814 8e-3 0.85627-8e-3 1.2844-8e-3h526.93c0.8257 0 1.3609-0.0231 1.6973 0.0385 0.01 8e-3 0.016 8e-3 0.016 0l0.015 8e-3c0.3975 0.0847 0.5275 0.30805 0.5581 0.87795 0.023 0.32345 0.015 0.76243 0.015 1.3477-0.023 117.05 0.1529 234.11-0.1452 351.16-0.1529 58.453-0.053 116.91-0.2447 175.37-0.038 2.295-0.1375 4.5284-0.2982 6.6924v8e-3c-0.1834 2.5337-0.4433 4.9596-0.7874 7.3085-1.1162 7.7706-3.0734 14.579-5.8179 20.509-0.1529 0.33114-0.3058 0.6623-0.4664 0.98579-0.1376 0.30031-0.2829 0.60068-0.4434 0.89332-0.061 0.13091-0.13 0.26188-0.1988 0.39278-0.2447 0.47748-0.4969 0.93953-0.7569 1.4016v8e-3c-0.2828 0.51597-0.5734 1.0242-0.8716 1.5171-0.2981 0.50831-0.6039 1.0012-0.9249 1.494-0.1912 0.30037-0.3824 0.59302-0.5811 0.88566-0.3899 0.59297-0.7951 1.1706-1.2156 1.7328-0.053 0.077-0.099 0.14634-0.1529 0.21562-0.2523 0.34657-0.5122 0.69314-0.7798 1.032-0.031 0.0385-0.069 0.077-0.092 0.11549-0.01 8e-3 -0.015 0.0154-0.023 0.0231-0.01 0.0154-0.016 0.0308-0.023 0.0385-1.6972 2.1564-3.5397 4.151-5.535 5.9685-6.5442 5.9993-14.656 10.227-24.12 12.915-5.8485 1.109-11.628 2.2103-17.584 2.2103-5.688 0-11.368 0.0154-17.056 0.0154h-0.61919l-7.6375 0.0154h-0.0233-1.2768-0.061c-25.864 0.0154-51.735 0.0308-77.606 0.0462-8.0121 8e-3 -16.024 0.16945-24.029-8e-3 -6.6665-0.13862-13.15 0.83946-19.602 2.3181l-9.7018 2.7879c-10.122 3.4579-19.357 8.4714-27.354 15.711-7.3394 6.6462-12.867 14.609-17.01 23.589-0.66512 1.4478-1.2768 2.9265-1.8961 4.3974-0.14523 0.33881-0.22933 0.7008-0.65746 0.89333-1.0092-1.9484-1.9954-3.9276-3.0428-5.8684-5.7721-10.751-13.157-20.139-22.874-27.563-0.41283-0.31579-0.83331-0.63153-1.2538-0.93188-0.42049-0.30808-0.84863-0.60838-1.2691-0.90875-0.1835-0.13095-0.367-0.25415-0.55051-0.38507-0.1834-0.13095-0.3669-0.25415-0.5504-0.37736-0.37466-0.24644-0.74157-0.49288-1.1162-0.73933-0.87149-0.56989-1.7584-1.1167-2.6528-1.6481-0.38997-0.23103-0.77984-0.46205-1.1774-0.68542-0.91741-0.52369-1.8501-1.032-2.7905-1.5171-0.29812-0.15403-0.58868-0.30036-0.8868-0.44668-0.48937-0.24645-0.97864-0.48519-1.4603-0.71622-0.75687-0.36194-1.5137-0.7008-2.2706-1.0319-0.56571-0.24645-1.1314-0.4929-1.7049-0.72393-0.0843-0.0385-0.16054-0.0693-0.24463-0.10012-0.5352-0.21566-1.0703-0.43127-1.6055-0.63151-0.0455-0.0231-0.0994-0.0385-0.14523-0.0539-0.23698-0.0847-0.46631-0.16945-0.70339-0.26185-1.0473-0.39274-2.1023-0.75472-3.1651-1.0936-0.48928-0.16175-0.9709-0.31574-1.4678-0.46205-0.57337-0.17717-1.1468-0.34657-1.7202-0.50832-0.45866-0.13091-0.92506-0.26181-1.3914-0.37736-0.31352-0.0847-0.62694-0.16941-0.94037-0.24644-0.52754-0.13861-1.055-0.26952-1.5902-0.39276-0.25994-0.0616-0.51223-0.12321-0.77218-0.17712-0.59633-0.13862-1.1927-0.26953-1.7966-0.39277-4.3654-0.90104-8.7614-1.7251-13.249-1.6866h-0.12992l-9.8623 0.0463c-1.4372 0.0154-2.8822 8e-3 -4.3195 0.0154-35.581 0.0616-71.169 0.1232-106.75 0.18482h-1.7584l-15.428-0.0308c-0.0155 8e-3 -0.0233 8e-3 -0.0388 0h-0.78739c-12.102-0.83944-22.79-5.1521-32.003-13.123-4.9159-4.2511-8.9601-9.2338-12.324-14.794-4.8743-8.9335-8.4358-17.618-9.4018-25.811-1.6703-5.2772-1.2794-17.659-1.0026-29.647m-0.16838-50.928m0.23679 8.9527m-0.0688 41.975-0.16839-20.508" style="stroke-width:.99999"/>
 <path class="st1" d="m645.89 725.7c-0.41196-0.25405-0.75571-0.57514-1.03-0.94822-1.2489 0.3523-2.5078 0.6505-3.7769 0.90536 1.5999 0.0498 3.2028 0.053 4.8069 0.0428z" style="stroke-width:.99999"/>
 <path d="m750.82 173.27c-88.384 0.02478-176.77 0.0952-265.15 0.03711-2.262 31.294-0.38132 64.222-1.0566 96.133-0.3467 86.409-0.21263 172.82-0.20508 259.23 22.173 15.438 49.803 19.175 76.41 18.859 31.753 2.8722 62.948 10.248 93.373 19.357 10.315-26.987-5.3113-54.719-8.5117-81.596-26.559 3.546-53.546 3.7524-80.254 4.9551-22.541 7.7645-21.371 41.312-46.541 44.508-8.1625-3.8531-12.417 3.3366-20.525-6.4883-11.366 1.2184-10.183-35.632 8.375-41.258 17.189-17.906 34.83-36.695 59.369-44.055 18.052-10.402 49.49-20.975 39.469-47.756-2.8368-17.463 1.6215-40.594-3.2949-54.758-15.584 18.426-41.419-7.0062-40.463-21.555-11.017-11.018-21.356-49.114 7.2695-49.9 24.021-6.7603 45.231-25.382 72.086-14.182 21.77-5.8411 58.986 3.6785 34.191 29.693 17.45 26.1 34.365 53.28 60.385 71.828 14.955 17.93 33.883 29.94 57.412 33.373 45.337 11.838 93.981 19.291 133.35 45.9 40.306 15.696 64.236 60.214 60.117 102.56 0.91087 29.086-11.037 55.504-23.402 81.01-13.281 18.38 0.40102 47.877 23.914 32.555 35.961 3.1257 14.598 45.152-13.432 32.807-31.305 1.1055-48.422-32.196-41.189-59.648 9.8343-28.058 24.251-54.812 27.08-85.076 3.4738-24.229-5.8859-50.77-24.908-66.332-1.086 5.4482-1.4142 11.066-1.6738 16.598-0.859 25.812 1.2553 52.447-3.3164 77.795-14.572 19.478 5.5811 45.048-12.561 62.102-6.1379 17.519-35.424 42.673-2.3301 46.625 29.567 15.892 63.483 18.717 94.619 29.887 14.65 2.3822 2.3921-35.231 6.4648-48.219 0.056-161.58 0.7393-323.19 0.0625-484.75-88.371-0.24124-176.75-0.26307-265.14-0.23828zm-161.72 137.12c-0.4203 0.00396-0.8415 0.07079-1.2637 0.17383-2.5457 0.62128-4.9566 1.6525-7.4394 2.4648-1.2132 0.39694-2.4488 0.73229-3.6484 1.166-0.72393 0.26174-1.5208 1.7096-1.2754 2.4336 0.2956 0.87188 1.1414 0.35707 1.7383 0.48243 0.05842 0.0126 0.1226 0.00195 0.1836 0.00195v-0.00195c2.0792-0.01001 4.0847-0.57195 6.1289-0.84571 1.5506-0.20768 3.0778-0.64027 4.5957-1.0449 1.2069-0.32171 2.2212-1.016 2.9941-2.0078 0.83331-1.0693 0.51136-2.1479-0.76172-2.6152-0.41313-0.15168-0.83165-0.21099-1.252-0.20703zm125.52 196.54c-3.7936 5.8179-5.0467 13.483-7.4805 20.146-5.7199 17.406-9.6423 35.313-13.744 53.145 5.2462 1.9788 14.002 1.9225 19.781-1.3457 8.376-4.0092 17.356-8.8034 22.221-16.994 1.8595-17.084 0.7278-34.91 7.1348-51.215-5.9571-2.1928-15.399-0.65026-22.559-2.709-1.8008-0.26288-3.5425-0.83649-5.3535-1.0273zm116.63 18.609c-16.136 2.7275-33.091 10.96-39.686 26.887-4.9726 10.262-4.3002 22.482-10.014 32.361-10.729 8.3217-25.098 10.197-35.918 18.096 7.1231 4.1626 15.301 6.9752 22.768 10.746 20.587 9.1177 40.905 19 61.541 27.904 6.0063-4.1989 14.301-1.7358 21.004-0.49023 8.1557 3.5905 12.939-5.6588 14.049-12.357 5.1174-17.123 3.1373-35.265 1.7129-52.791-3.0514-7.8613-8.6853-14.582-13.182-21.715-6.8927-9.7003-13.556-19.689-21.629-28.447l-0.64649-0.19336z" style="fill:#008601;stroke-width:.99999"/>
 <path d="m484.36 534.47v13.863c1.9215-2.2581 4.643-8.8681 4.6894-11.043 0.00755-0.3517-0.14004-0.55414-0.44726-0.70508-1.3956-0.68566-2.7844-1.3867-4.2422-2.1152zm11.492 6.0684c-0.72807-0.05171-1.0442 0.49581-1.8184 1.9922-2.0882 4.0362-4.7553 7.4562-9.0742 9.248-0.5443 0.22581-0.67383 0.62104-0.67383 1.166 0.0145 4.0648 0.0184 8.1287 0 12.193-0.0033 0.74141 0.30573 0.93245 1.002 0.90821 4.9646-0.17295 9.689 1.0252 14.342 2.6074 3.4702 1.18 6.9446 2.3506 10.4 3.5723 0.73198 0.25876 1.0938 0.12354 1.418-0.58398 0.86645-1.8914 1.7836-3.7598 2.7051-5.625 2.0363-4.1216 3.7692-8.395 6.2559-12.291 0.7094-1.1115 1.4589-2.2442 1.9434-3.6504-3.1104-0.94642-6.2186-1.5728-9.1856-2.6699-0.57201-0.2115-0.89683 0.065-1.1973 0.5293-0.8339 1.2888-1.6688 2.58-2.5605 3.8281-2.527 3.5368-5.8175 6.1135-9.8145 7.7676-0.51625 0.21364-1.0154 0.64937-1.6445 0.36719 0.18679-0.63461 0.77581-0.89579 1.2148-1.2812 3.7229-3.2683 6.3767-7.2651 8.0742-11.922 0.47532-1.3038 0.4833-1.3197-0.81836-1.8711-2.8708-1.216-5.7484-2.4144-8.623-3.6211-0.922-0.38697-1.5085-0.63303-1.9453-0.66406zm37.029 11.062c-1.178 0.02056-1.2997 0.21834-0.98437 1.2969 0.17236 0.58968 0.34132 1.1828 0.56445 1.7539 1.792 4.5867 2.6442 9.353 2.3965 14.264-0.10657 2.1139 0.44291 3.7181 2.1797 4.8965 0.09989 0.06783 0.17268 0.17445 0.26758 0.25195 3.9987 3.2768 8.4854 4.5104 13.52 3.1016 7.6751-2.148 15.467-3.5906 23.424-4.0274 8.6184-0.4733 17.231-0.17907 25.84 0.3418 3.599 0.21777 7.2036 0.33913 10.801 0.58008 1.1175 0.07488 1.6538-0.27786 1.918-1.3887 0.27439-1.1536 0.97458-2.1161 1.9043-2.8672 0.95568-0.7721 1.9851-1.4356 3.1289-1.8906 2.3387-0.9305 4.7505-1.5518 7.2617-1.8105 1.0008-0.10303 2.0842 0.00361 2.9961-0.69141-0.2768-0.37887-0.64861-0.42313-0.99023-0.51953-5.9924-1.6912-12.034-3.1918-18.107-4.5527-7.2692-1.6291-14.584-3.0077-21.936-4.2305-7.9607-1.3241-15.952-2.3791-23.977-3.1426-8.2124-0.78134-16.447-1.3393-24.705-1.3633-1.834-0.0054-3.6686-0.03399-5.502-0.00196zm-6.373 1.4062c-0.91751 0.09762-0.92082 1.0306-1.3281 1.5625-1.3748 1.7952-2.7376 3.6158-3.6758 5.7031-2.2988 5.1154-3.967 10.49-6.332 15.578 0.02325 0.6333-0.24698 1.1927-0.44531 1.7695-1.9549 5.6852-3.9122 11.37-5.8574 17.059-0.12484 0.36471-0.45529 0.79034 0.08204 1.1191 0.42639 0.04442 0.67768-0.25103 0.96679-0.46094 4.037-2.9301 6.9968-6.8223 9.6191-11.002 3.3736-5.3772 5.8141-11.206 8.0742-17.119 0.73884-1.9321 0.92877-3.9305 0.78906-5.9824-0.19386-2.8468-0.98533-5.5488-1.8926-8.2266zm-28.629 6.1856s0.04092 0.03116 0.04102 0.03125c-0.00648 0.0033-0.01306 0.00645-0.01954 0.00977-0.01085-0.01482-0.0068-0.02565-0.02148-0.04102zm0.04297 0.73047c0.07196 0.09945 0.07353 0.18648-0.03906 0.21289-0.06462 0.0151-0.14806-0.05058-0.22266-0.08008 0.0873-0.04446 0.17427-0.08831 0.26172-0.13281zm-12.42 9.627c-0.94473 0.0132-1.2656 0.32873-1.252 1.2871 0.0465 3.2612 0.00894 6.5234 0.02344 9.7852 0.00203 0.4666-0.15188 0.97456 0.29883 1.498 6.8176-1.9976 13.197-5.291 19.967-7.6973-3.919-1.7124-7.8694-3.1121-11.959-4.0606-2.3222-0.53859-4.6782-0.84608-7.0781-0.8125zm150.07 0.1582c-3.1277-0.09203-6.2258 0.23335-9.2676 0.9961-4.6262 1.1602-6.8807 3.8582-7.1602 8.5293-0.06317 1.0562-0.12287 1.128-1.2305 0.90039-4.4989-0.92483-9.0567-1.4076-13.621-1.793-7.7424-0.65385-15.508-0.81209-23.275-0.85938-3.341-0.0203-3.3982 0.09-1.9492 3.1758 1.308 2.7857 2.928 5.3991 4.3613 8.1152 0.29279 0.55484 0.78356 1.0741 0.53515 1.8984-2.3057-0.73811-4.0746-2.1144-5.6738-3.7442-2.1409-2.1819-3.6064-4.7922-4.7402-7.6152-0.52338-1.3034-0.68291-1.3943-2.0332-1.332-0.42727 0.01965-0.85223 0.0835-1.2793 0.10937-7.0729 0.42879-13.76 2.745-20.609 4.2676-0.81336 0.18073-1.0803 0.58884-0.99024 1.4356 0.59682 5.6055-1.0149 10.708-3.5996 15.572-0.27293 0.51377-0.5129 1.0763-1.2266 1.5449-0.12372-1.2827 0.00361-2.3607 0.15039-3.4297 0.37-2.6969 0.39728-5.4073 0.27734-8.1152-0.10551-2.3821-0.68394-4.6392-2.3984-6.4199-0.80716-0.83834-1.6704-1.6266-2.5547-2.3828-1.0549-0.90201-1.3374-0.84602-1.7832 0.41992-0.65263 1.8536-1.2307 3.735-1.8301 5.6074-1.5565 4.8621-3.2244 9.6796-5.7051 14.162-1.7712 3.2003-3.9047 6.1085-6.8418 8.3398-0.30896 0.23482-0.57234 0.65648-1.1602 0.41211 0.1679-0.79435 0.61779-1.4467 0.96484-2.1445 3.4781-6.9935 6.7867-14.061 8.457-21.76 0.61329-2.8268 1.0292-5.6906 0.34571-8.6016-0.20133-0.85756-0.50197-1.649-0.9336-2.3867-0.58315-0.99666-0.95467-0.98355-1.5059-0.01758-0.18243 0.31972-0.33695 0.65655-0.50195 0.98633-1.3738 2.7472-2.6865 5.5284-4.1328 8.2363-4.1869 7.8389-9.8166 14.381-17.301 19.213-7.1144 4.5933-14.92 7.5511-23.008 9.8398-0.18797 8.8575-0.11581 17.716-0.07031 26.574 0.69951-0.03821 1.2578-0.44986 1.8516-0.74609 8.1118-4.0471 15.906-8.6479 23.518-13.578 3.6992-2.3961 7.4753-4.6718 11.551-6.3867 6.237-2.6243 12.83-3.5784 19.496-3.916 9.0423-0.45791 18.096-0.29126 27.141 0.09375 5.8025 0.24705 11.6 0.6338 17.402 0.89453 1.168 0.05256 2.0787 0.35448 2.9277 1.2051 3.5534 3.5599 7.1593 7.0681 10.756 10.584 1.1799 1.1534 1.1959 1.1388 2.3496 0.06836 0.17962-0.16659 0.33521-0.3574 0.51367-0.52539 5.751-5.412 12.063-10.027 19.164-13.48 0.93453-0.45411 1.1472-0.96332 0.9043-1.8633-0.74234-2.751-0.12952-5.387 0.82422-7.9414 0.36366-0.97507 0.50575-1.8625 0.2832-2.8613-0.89493-4.0178 0.0474-7.6794 2.1523-11.115 2.0079-3.2775 4.868-5.6573 8.0195-7.7207 3.8149-2.4978 7.9428-4.3443 12.238-5.8164 2.1281-0.72939 4.0156-1.8181 5.4883-3.5469 0.71327-0.83749 0.53871-1.277-0.53711-1.4648-4.8827-0.85272-9.7952-1.4715-14.752-1.6172zm-126.28 7.9395c-0.40721 0.10118-0.81447 0.19958-1.2207 0.30468-1.7067 0.44194-3.1742 1.4485-4.8066 2.0664-2.4591 1.717-5.2344 2.7988-7.9766 3.9199-3.5465 1.4499-7.2088 2.5573-10.945 3.4062-0.15359 6.7796-0.09135 13.56-0.03125 20.34 5.5461-1.2728 10.775-3.3497 15.801-6.0391 2.1484-1.1497 3.3542-2.7732 4.1445-5.041 1.5137-4.344 2.7331-8.7667 3.8164-13.227 0.45972-1.8924 1.1094-3.7574 1.2188-5.7305zm127.79 16.24-0.09179 0.06055 0.02539 0.02734 0.0664-0.08789zm102.8 13.578c-0.77838-0.0156-1.4322 0.33751-2.0957 1.1133-2.012 2.3523-4.6855 3.7004-7.4785 4.8398-0.66609 0.27178-1.3547 0.48454-2.207 0.78711 0.47435 0.77276 1.0233 0.87965 1.5449 1.0371 1.2253 0.36984 2.4491 0.74586 3.6758 1.1113 10.414 3.1023 20.67 6.6782 30.865 10.439 19.597 7.2299 38.902 15.187 58.041 23.561 0.7559 0.33068 1.1417 0.16117 1.4805-0.46875 0.43559-0.80975 0.7834-1.6786 1.2988-2.4316 1.1708-1.7104 0.8132-1.7788-0.87891-2.6562-0.10803-0.05591-0.23018-0.08494-0.34179-0.13477-9.7646-4.3519-19.528-8.7026-29.291-13.059-17.689-7.8928-35.387-15.767-53.049-23.723-0.58505-0.26355-1.0974-0.40666-1.5644-0.41601zm-113.27 0.33593c-0.1346-0.00734-0.2459 1.9e-4 -0.32617 0.02539-1.4441 0.4538-2.7014 2.0461-2.8047 3.5762-0.03498 0.51724 0.14728 0.90005 0.73828 0.66601 1.8173-0.71959 3.6225-1.4736 5.4297-2.2188 0.24094-0.09941 0.375-0.28811 0.375-0.56836-0.02322-0.04996-0.04426-0.10948-0.07813-0.16015-0.32442-0.49092-2.3918-1.2689-3.334-1.3203zm50.613 0.86524c-1.0769 0.00305-2.1587 0.1183-3.2695 0.46484-6.8405 2.134-13.778 2.704-20.762 0.53125-1.3963-0.43447-2.625 0.15346-3.4062 1.4688-0.55351 0.93188-0.6288 1.978-0.73828 3.0215-0.07306 0.69615 0.0782 1.4317-0.26953 2.2734-1.2048-1.3414-1.536-2.8038-1.6758-4.3438-0.14098-1.5514-0.33121-1.7632-1.7734-1.4394-2.3206 0.52105-4.64 1.0551-6.9121 1.7793-0.87381 0.27841-1.3575 0.80686-1.377 1.7188-0.02742 1.0994-0.00981 2.1996-0.00977 3.5742-1.1218-0.70537-1.3101-1.6416-1.6543-2.4766-0.6222-1.5092-0.72565-1.5728-2.123-1-6.4757 2.6546-12.599 5.9583-18.289 10.066-4.7864 3.4553-9.1698 7.3692-13.248 11.639-0.27884 0.29186-0.71784 0.55418-0.50586 1.0645 0.17149 0.41273 0.60287 0.35082 0.95312 0.40234 0.60505 0.08895 1.2103 0.17582 1.8184 0.23828 7.2338 0.74354 14.482 1.3544 21.682 2.4121 6.4203 0.94316 12.769 2.1846 18.764 4.7852 0.91178 0.39555 1.4295 0.26636 2.0488-0.42578 1.5623-1.7462 3.3756-3.2025 5.3184-4.5039 5.415-3.6276 11.45-5.729 17.67-7.4219 1.5256-0.41516 2.7896-0.21616 4.1934 0.46485 4.0389 1.9594 7.8626 4.2424 11.32 7.1172 0.90713 0.75429 1.8343 1.1099 3.0137 0.97657 1.2129-0.13716 2.4401-0.16711 3.6621-0.19922 12.474-0.328 24.943-0.21946 37.414 0.2793 8.3717 0.33482 16.728 0.87732 25.086 1.4258 2.3176 0.15207 4.6344 0.34372 6.9434 0.59375 6.3188 0.68429 12.64 1.3565 18.947 2.1348 4.5479 0.5612 9.0839 1.2291 13.609 1.9531 3.6766 0.58822 7.3287 1.3352 10.994 1.9961 0.31391 0.05661 0.72644 0.18366 0.85742-0.33203-0.15007-0.51267-0.61705-0.54422-1.0039-0.69336-8.1518-3.1433-16.319-6.245-24.451-9.4394-12.911-5.0718-25.842-10.089-38.904-14.754-6.9626-2.4863-14.003-4.7367-21.064-6.916-1.1736-0.36213-2.3632-0.46756-3.6172-0.32618-2.002 0.22577-4.024 0.33123-6.0391 0.35157-1.2467 0.0126-2.4209 0.23481-3.5898 0.60742-5.3353 1.7009-10.257 0.823-14.758-2.4727-0.80271-0.58774-1.6056-1.0869-2.5723-1.3516-2.9428-0.80543-5.5206-2.2965-7.791-4.3359-0.36641-0.32917-0.72073-0.64931-1.252-0.69922-1.0898-0.10244-2.1614-0.21204-3.2383-0.20898zm-123.1 10.471c-4.1822 0.01431-8.3635 0.18402-12.545 0.60352-5.0595 0.50756-10.036 1.3567-14.926 2.7441-8.0328 2.2791-15.228 6.2555-22.033 11.021-0.47387 0.33199-1.1172 0.53568-1.2969 1.3711 0.19958 0.09759 0.30735 0.20041 0.40625 0.1914 0.48617-0.04259 0.97501-0.09328 1.4551-0.17969 5.3164-0.95682 10.596-0.54959 15.852 0.4629 4.3752 0.84289 8.7263 1.744 13.195 2.0742 5.5791 0.41209 11.117 0.10946 16.65-0.45117 4.2517-0.43075 8.4793-1.0734 12.664-1.9726 0.74611-0.16033 1.4298-0.03514 2.127 0.29882 1.6525 0.79158 3.3352 1.5202 5.0039 2.2774 4.8992 2.2228 9.7933 4.4565 14.699 6.6641 1.419 0.63861 1.4565 0.61646 2.0898-0.41602 2.3215-3.7851 5.1148-7.2013 8.0391-10.518 1.0428-1.1826 1.0605-1.2354-0.09179-2.373-2.9233-2.8863-5.907-5.7141-8.7715-8.6582-1.063-1.0925-2.2299-1.5975-3.6934-1.6953-5.4262-0.36246-10.847-0.8636-16.277-1.1211-4.1824-0.19834-8.3647-0.33853-12.547-0.32422zm-51.178 15.961-0.14258 0.0332 0.12305 0.08008 0.01953-0.11328zm167.7 2.084c-0.2385 0.00616-0.48421 0.04459-0.74024 0.1211-1.8143 0.54192-3.6692 0.96923-5.4414 1.625-6.6161 2.4482-12.811 5.5505-16.943 11.668-0.3861 0.57163-0.82796 0.65889-1.4102 0.37695-0.49517-0.23986-0.99182-0.47982-1.5-0.68945-2.0902-0.86235-4.1735-1.7434-6.2832-2.5547-0.86296-0.33181-1.1705-0.05121-1.002 0.83984 0.14863 0.7855 0.32164 1.5565 0.36914 2.3633 0.20655 3.5099-0.53262 6.8595-1.7109 10.119-1.5833 4.3802-3.7453 8.4237-7.0742 11.74-0.70213 0.69953-1.4294 1.414-2.5273 1.6445 0-0.30643-0.0358-0.44452 0.00976-0.54102 0.1308-0.27548 0.29061-0.53649 0.44727-0.79882 2.2138-3.7074 4.025-7.5821 4.9824-11.832 1.0117-4.491 0.82283-8.9105-0.54297-13.303-0.32689-1.0513-0.86328-1.6057-1.9922-1.7676-5.3226-0.76293-10.636-1.5938-15.951-2.4062-0.79136-0.12098-1.2079 0.13036-1.4453 0.97461-0.88282 3.1396-2.0004 6.1979-3.3555 9.166-3.9442 8.6393-9.899 15.614-17.355 21.363-5.7 4.3948-11.911 7.9538-18.193 11.4-0.55864 0.30652-1.2335 0.47103-1.5644 1.207 0.66561 0.55223 1.4282 0.53072 2.125 0.60352 5.7758 0.60298 11.52 1.4241 17.258 2.3203 6.8922 1.0765 13.689 2.5416 20.295 4.8125 7.3636 2.5315 14.078 6.2199 19.877 11.51 3.6042 3.2878 6.6586 7.0407 9.3066 11.131 0.60659 0.9371 1.2333 1.3314 2.3945 1.1856 3.0923-0.38854 6.21-0.57407 9.3047-0.94531 8.6772-1.041 17.37-1.9358 26.023-3.1895 6.4704-0.93741 12.933-1.9232 19.348-3.1738 8.632-1.683 17.178-3.7615 25.598-6.3242 12.128-3.6918 23.856-8.4053 35.131-14.242 4.0238-2.0832 8.0446-4.1666 11.393-7.3242 0.57503-0.5424 1.277-0.94828 1.9258-1.4102 2.2268-1.5852 4.6232-2.6855 7.377-3.0508 1.6344-0.21687 3.2714-0.4318 4.9082-0.63476 5.567-0.69038 11.119-0.36362 16.637 0.45703 7.4453 1.1073 14.64 3.3091 21.877 5.3125 0.92119 0.25503 1.7865 0.23665 2.7031 0.01172 4.6044-1.13 9.2933-1.5549 14.012-1.3262 8.347 0.4048 16.47 2.1 24.398 4.7285 0.86102 0.28537 1.5765 0.43246 2.2422-0.79883 0.25277 1.1199 0.58724 1.7478 1.4375 2.0449 2.1322 0.74506 4.2263 1.6038 6.3438 2.3926 0.37942 0.14141 0.82771 0.45929 1.2051 0.11719 0.97457-0.88341 1.7772-0.1283 2.0234 0.5293 0.37746 1.0082 1.1626 1.2204 1.9043 1.5488 5.8221 2.5784 11.466 5.5114 16.979 8.6973 1.7955 1.0375 3.6902 1.9248 5.2891 3.2871 1.483 0.95462 3.2458 1.0503 4.8594 1.6035 0.26644-0.1395 0.51491-0.12135 0.74414 0.08203 0.37872-0.08696 0.744-0.05575 1.0938 0.12109 0.76046-0.12818 1.4983-0.05815 2.2031 0.27149 4.74 0.06692 9.4656-0.02673 14.17-0.75586 3.7813-0.58616 7.5162-1.3773 11.242-2.2305 0.29598-0.46846 0.42816-0.87041-0.26758-1.1309-1.4238-0.53291-2.8378-1.0927-4.25-1.6562-4.5126-1.8006-9.1037-3.4008-13.529-5.4219-1.8938-0.73139-3.9658-1.0995-5.416-2.7344-0.15172-0.171-0.42574-0.23293-0.64258-0.3457-8.6238-4.4856-17.247-8.9714-25.871-13.457-1.1664 0.67476-2.3817 1.2783-3.4883 2.041-1.7724 1.2216-3.7204 1.8572-5.8301 1.8652-3.004 0.01139-5.9851-0.23459-8.8066-1.4434-1.1888-0.50925-2.4272-0.73205-3.7441-0.74805-3.4123-0.04136-6.823-0.19607-10.234-0.3125-2.7668-0.09447-5.2868-0.8262-7.4043-2.75-1.0949-0.99474-1.4036-0.89219-2.3965 0.19922-0.40373 0.44374-0.51684 1.2342-1.332 1.3223-0.16045-0.95965 0.00886-1.8036 0.24024-2.6348 0.21003-0.75481-0.04916-1.152-0.80664-1.332-1.0711-0.25463-2.109-0.62054-3.1289-1.0508-2.0601-0.86923-3.7906-2.2138-5.4824-3.6426-1.0835-0.91513-1.2464-0.89202-2.3828-0.05274-0.5412 0.39977-1.0453 0.8519-1.5781 1.2637-0.2394 0.185-0.51675 0.37904-0.80469 0.0918-0.19481-0.19432-0.13238-0.45201-0.08008-0.69531 0.21132-0.98513 0.94736-1.6941 1.3398-2.5938 0.7152-1.6396 0.64604-2.7457-0.58789-4.0137-1.3253-1.3618-2.7717-2.6058-3.875-4.1777-0.4699-0.66938-1.0121-0.59761-1.5234-0.04883-0.56262 0.60359-1.0983 1.2332-1.8535 2.0859 0-0.6323-0.01941-0.92505 0-1.2148 0.08227-1.2549 0.58838-2.3712 1.0781-3.5059 0.36275-0.84017 0.16214-1.187-0.66992-1.2676-1.9589-0.18989-3.8039-0.87218-5.6895-1.3496-6.0465-1.531-12.157-2.7432-18.305-3.7324-5.4895-0.88332-11.021-1.5137-16.537-2.2227-1.8175-0.23352-3.6454-0.38777-5.4727-0.53125-1.0556-0.0828-1.1423 0.05822-0.97265 1.1543 0.2324 1.502 1.0393 2.7382 1.7969 4.0039 0.4138 0.69129 1.0828 1.2712 1.1777 2.2344-0.31904 0-0.50595 0.03937-0.66601-0.00976-0.28901-0.08881-0.56954-0.21542-0.83985-0.35352-2.6921-1.3752-4.4072-3.6492-5.6367-6.334-0.38803-0.84732-0.80672-1.3736-1.8477-1.4629-5.9693-0.5117-11.931-1.121-17.898-1.6602-2.1304-0.19249-4.2705-0.27007-6.4043-0.42774-0.77316-0.05714-1.1628 0.21705-1.1191 1.0293 0.05931 1.1057 0.0659 2.2097 0.25976 3.3106 0.80948 4.5951 2.6 8.8285 4.6035 12.992 0.31982 0.66464 0.87219 1.2791 0.74023 2.3223-3.1915-1.8519-5.4802-4.3472-7.3008-7.3086-2.0958-3.4091-3.1729-7.1628-3.6836-11.115-0.20444-1.5819-0.27318-1.5988-1.8242-1.7031-7.8786-0.52955-15.768-0.48489-23.656-0.40039-1.3468 0.0144-1.4633 0.19494-1.2578 1.543 0.05513 0.36174 0.16415 0.71774 0.27344 1.0684 0.73749 2.365 1.8796 4.5357 3.1484 6.6465 0.32262 0.53679 0.79701 1.0365 0.66797 1.9375-3.8078-1.7587-6.8614-4.0652-8.5488-7.8848-0.32214-0.72917-0.60315-1.4766-0.90039-2.2168-0.28185-0.70169-0.74137-1.0516-1.5469-1.0059-3.9067 0.22176-7.8163 0.38911-11.723 0.61719-0.90511 0.0529-1.0472 0.3953-0.58008 1.2207 0.36206 0.64001 0.78876 1.2445 1.2168 1.8438 4.6859 6.56 9.9008 12.67 15.477 18.475 0.38512 0.4009 1.0012 0.69591 1.002 1.4394-0.50826 0.12861-0.88972-0.04436-1.2793-0.23633-1.4822-0.72997-2.9465-1.4825-4.3477-2.3691-4.8074-3.0418-8.8585-6.9561-12.705-11.107-3.3373-3.6016-6.4708-7.3911-9.8887-10.92-2.6976-2.7852-5.5429-5.3842-8.7891-7.5195-0.65326-0.43002-1.3021-0.70257-2.0176-0.6836zm-160.18 1.5664c-6.2299 0.00536-12.284 1.1917-18.18 3.3086-2.6958 0.96787-5.3073 2.1755-7.957 3.2734-0.031 0.48896-0.08906 0.9778-0.08984 1.4668-0.0164 10.428-0.02516 20.857-0.03516 31.285-1e-3 0.55025 0.0598 1.1001 0.0918 1.6504 1.218-0.09412 2.4354-0.20174 3.6543-0.28126 9.3415-0.6085 18.579-1.9042 27.717-3.9844 7.4078-1.6864 14.627-3.9284 21.516-7.1562 7.9001-3.7016 15.005-8.4937 20.438-15.514 2.6554-3.431 4.6552-7.2073 5.9883-11.342 0.41699-1.2931 0.24782-1.5196-1.1309-1.4473-1.1585 0.06072-2.3135 0.18153-3.4688 0.29296-5.2308 0.50457-10.455 1.0931-15.707 1.3184-5.8173 0.24956-11.606 0.0283-17.275-1.5117-0.77121-0.2095-1.2483-0.10482-1.3496 0.88671-0.36846 3.6047-1.9962 6.6735-4.168 9.4844-0.3235 0.41872-0.57373 0.94803-1.248 1.123-0.0032-1.3511 0.36846-2.5808 0.67578-3.8125 0.47745-1.9132 0.91463-3.8208 0.86133-5.8184-0.06608-2.4866-0.17667-2.6674-2.709-2.8848-1.6431-0.14111-3.2938-0.17907-4.9414-0.26758-0.89722-0.04822-1.7917-0.07108-2.6816-0.07031zm86.502 2.6055c-0.48354 0.05018-0.83607 0.31251-1.207 0.7207-2.1471 2.3629-4.2868 4.7364-6.1641 7.3203-2.3969 3.2992-4.9323 6.411-8.6172 8.3594-1.5131 0.80008-2.9458 1.7503-4.4473 2.5742-9.971 5.4716-20.592 9.3134-31.402 12.68-6.1241 1.9069-12.319 3.5546-18.557 5.0254-4.6358 1.0931-9.2977 2.0924-13.975 2.9902-5.2188 1.0021-10.461 1.8862-15.727 2.6191-4.1776 0.58151-8.3608 1.0979-12.562 1.4629-0.11713 3.9827-0.17718 7.9646-0.16797 11.947 0.01 3.4041 0.06608 6.8085 0.18164 10.213 0.0329 0.96474 0.46125 1.0836 1.2734 0.99804 3.5882-0.3781 7.1576-0.8974 10.666-1.7344 7.9038-1.7336 15.155-3.5973 20.531-5.834 7.5155-2.5794 14.982-5.2936 22.129-8.8047 3.1284-1.5369 6.2727-3.1018 8.9082-5.4375 1.0872-0.96346 2.1744-1.1935 3.5234-0.9961 2.3569 0.34478 4.7374 0.54109 7.0879 0.92188 4.613 0.74738 3.1528 0.75944 7.2812-1.2754 7.1416-3.5199 14.111-7.356 20.609-12.002 6.0696-4.3394 11.615-9.226 15.771-15.537 2.6645-4.046 4.5671-8.4129 5.3672-13.225 0.21421-1.2879 0.16614-1.3601-1.0957-1.5684-2.9545-0.48768-5.9226-0.89501-8.875-1.3945-0.19569-0.03311-0.37202-0.04017-0.53321-0.02344zm-27.766 0.69726c-0.3595-0.00803-0.62131 0.19531-0.74805 0.8086-0.79243 3.8345-2.8117 7.0331-5.1523 10.066-3.5838 4.6441-7.921 8.5132-12.385 12.254-0.45527 0.3816-1.0248 0.66069-1.2402 1.3516 0.40624 0.21191 0.63879 0.11395 0.86133 0.02735 4.9464-1.923 9.9144-3.7884 14.828-5.793 4.6937-1.9147 9.3094-4.0183 13.625-6.7227 1.9754-1.2379 3.8744-2.581 5.3945-4.3789 0.73546-0.86987 0.64436-1.1313-0.39648-1.6055-0.72219-0.32895-1.4594-0.62768-2.1934-0.92969-3.9499-1.6247-7.9039-3.2369-11.848-4.877-0.27892-0.11599-0.53039-0.19635-0.74609-0.20118zm323.35 30.76c-0.3461 0.62507-0.85056 1.1397-1.2402 1.7207-0.5192 0.77408-1.5285 1.1883-1.6387 2.252 9.4919 4.9534 18.987 9.9032 28.473 14.869 0.41323 0.21633 0.97636 0.24459 1.1719 0.79882 4.7869 1.9691 9.5838 3.9157 14.355 5.9219 1.3279 0.55834 2.7784 0.84984 3.9531 1.7598 1.988 0.58332 3.959 1.2412 5.9688 1.7344 4.265 1.0464 8.4647 2.3129 12.611 3.748 9.2312 3.1951 17.971 7.3725 25.787 13.346 9.2979 7.1058 16.107 16.041 19.707 27.32 0.1091 0.34192 0.1207 0.64629 0.5703 1.0527 0.0652-0.12747 0.335-0.35824 0.4707-0.55664 0.7967-1.1647 1.6418-2.2985 2.4024-3.4863 5.0826-7.9395 7.8693-16.727 9.3984-25.973 0.2405-1.4541 0.2159-1.4799-1.2148-2.2344-10.925-5.7624-22.601-9.1229-34.734-11.043-1.1122-0.17608-2.2906-0.30653-3.3008-0.93555-3.3615-0.89493-6.7419-1.7274-10.082-2.6973-7.5554-2.1936-15.105-4.4092-22.629-6.709-3.4391-1.0511-6.8981-2.066-10.236-3.4316-1.9954-0.31897-3.7534-1.3814-5.7051-1.8379-3.1224-2.7705-7.1826-3.6549-10.809-5.4043-3.6234-1.7483-7.3544-3.268-11.035-4.8965-3.7363-1.6531-7.4681-3.319-11.205-4.9707-0.333-0.14712-0.69193-0.23311-1.0391-0.34766zm-98.426 11.688c-0.97282-0.02526-1.6672 0.38648-2.3027 1.3164-1.5672 2.2719-3.4557 4.2972-5.4512 6.2148-5.665 5.4756-12.148 9.672-19.342 12.791-0.5352 0.23107-1.2082 0.29331-1.5293 0.99414 0.7034 0.88563 1.8132 0.90965 2.7383 1.2793 5.2293 2.1101 9.8995 5.036 13.691 9.2871 0.25229 0 0.50506 0.03835 0.65039 0.26172 1.7966 2.7108 3.9519 5.1837 5.3203 8.1641 1.7049 3.6966 3.9755 7.0614 5.8867 10.635 0.45876 0.86254 0.99458 1.1937 1.9961 1.2168 8.4938 0.20795 16.981 0.53228 25.475 0.74023 14.304 0.34654 28.608 0.52323 42.92 0.09961 8.9831-0.26953 17.949-0.68552 26.887-1.6328 5.1604-0.53906 10.298-1.2784 15.336-2.5645 2.2859-0.58531 4.5877-1.1778 6.7207-2.4023-0.14523-0.28498-0.24507-0.50873-0.375-0.70898-3.7232-6.0917-7.683-12-13.004-16.844-0.44345-0.02311-0.71203-0.26184-0.84961-0.67774-0.29056-0.0385-0.48906-0.19922-0.61133-0.46875-0.16054-0.06161-0.3507-0.10116-0.48828-0.20898-6.9342-5.5372-14.563-9.8879-22.637-13.484-9.1971-4.0894-18.716-7.1231-28.738-8.3476-3.4709-0.42357-6.9436-0.65458-10.43-0.26954-0.5046 0.06162-1.1305-0.03835-1.3828 0.68555 0.5504 0.50831 1.2608 0.709 1.9336 0.97852 4.7247 1.8868 9.2655 4.1184 13.455 7.0449 5.4892 3.8352 9.8172 8.6504 12.264 15.012 0.19106 0.50056 0.52758 0.97739 0.27539 1.5781-0.68043 0.00801-0.89424-0.58575-1.2383-0.97851-2.6911-3.0497-5.7119-5.7378-8.9688-8.1406-10.168-7.4933-21.528-12.515-33.447-16.396-4.9999-1.625-10.092-2.8793-15.252-3.8574-2.9969-0.56988-6.0466-0.84804-9.0664-1.2793-0.151-0.02118-0.29656-0.03349-0.43555-0.03711zm-7.6016 0.07617c-2.9805 0.29355-5.9534 0.65099-8.8887 1.2539-1.1986 0.24617-2.2611 0.7758-3.2266 1.625-1.3766 1.2108-2.8761 2.291-4.3906 3.3281-7.7332 5.296-16.238 9.0096-24.982 12.205-8.956 3.273-18.113 5.8809-27.334 8.2754-1.8528 0.48113-3.7649 0.8157-5.4102 1.7051 4.7941-0.01265 9.5174-1.0968 14.248-2.0254 6.5894-1.2935 13.101-2.9346 19.545-4.8672 7.9118-2.3728 15.665-5.1385 23.113-8.7305 6.0848-2.9345 11.867-6.3558 16.84-11.021 0.47048-0.44148 1.038-0.82549 1.2188-1.4297-0.24512-0.35998-0.50309-0.34096-0.73242-0.31836zm-234.78 6.8066c-0.30189 0.0194-0.59677 0.08284-0.87304 0.25391-1.1395 0.7055-2.3854 1.2408-3.4043 2.1406 0.05551 0.35546 0.02245 0.75891 0.17969 1.0606 2.7617 5.298 3.2578 10.729 1.0332 16.346-0.40372 1.0194-0.6314 2.1116-1.4121 3.3594-0.03199-0.64218-0.05481-1.0002-0.0664-1.3594-0.05397-1.6594-0.02542-3.3261-0.17579-4.9766-0.23863-2.6198-1.1894-5.0039-2.6543-7.1797-0.92507-1.374-1.8516-2.7475-2.7774-4.1211-0.71367-0.07214-1.2813 0.32846-1.8848 0.60156-3.492 1.5803-7.0027 3.1147-10.617 4.3945 0.06123 0.89234 0.55009 1.626 0.92969 2.3848 1.5603 3.1193 1.6155 6.2478 0.22851 9.4356-0.4887 1.1234-0.92312 2.2705-1.6699 3.4766-0.34975-0.5884-0.22045-1.1369-0.18555-1.6152 0.33223-4.5859-1.8646-8.0196-4.9082-11.082-0.28552-0.28724-0.62472-0.35722-0.99414-0.38672-0.30839 0.4505-0.82263 0.47292-1.2734 0.64454-1.2977 0.49406-2.6964 0.73618-3.8652 1.5547-0.15783 0.09339-0.30515 0.21502-0.47461 0.27539-9.799 3.4884-19.695 6.5871-30.109 7.6133-1.5851 0.15616-1.6106 0.22192-1.3184 1.8027 1.0213 5.5221 2.6667 10.856 4.8906 16.006 0.54818 1.2693 0.5688 1.2812 2.0371 0.91992 8.4334-2.0749 17.014-3.2758 25.613-4.3477 8.7232-1.0873 17.48-1.877 26.242-2.5547 8.0968-0.62616 16.207-1.076 24.314-1.5508 6.7683-0.39636 13.54-0.74061 20.312-1.0645 6.2243-0.29765 12.45-0.53833 18.676-0.80273 0.551-0.02341 1.1036-0.03363 1.582-0.36914-0.05763-0.63255 0.17306-1.2038 0.34571-1.7949 0.91528-3.1332 1.5933-6.3127 1.707-9.5898 0.10134-2.9197-0.28396-5.759-1.459-8.459-0.38589-0.88661-0.97608-1.4552-1.9355-1.7969-6.8153-2.4262-13.886-3.7743-20.965-5.0664-6.0038-1.096-12.04-2.0069-18.104-2.7168-5.3368-0.62489-10.674-1.2514-16.051-1.4199-0.30437-0.00955-0.61217-0.03502-0.91407-0.01563zm273.44 9.1094c0.99769-0.01541 2.0026 0.2112 3.0117 0.63476 1.9648 0.81635 3.5241 2.1871 4.8926 3.7812 2.7446 3.2037 4.739 6.8311 5.7559 10.959 0.12227 0.51598 0.36691 1.0384 0 1.8086-1.3227-1.5403-2.4915-2.9494-3.707-4.3125-3.6696-4.1202-7.9592-7.4086-12.875-9.873-0.51989-0.26185-1.3672-0.34607-1.3672-1.0469 0-0.67001 0.80239-0.84016 1.3223-1.1328 0.97855-0.54679 1.9691-0.80296 2.9668-0.81836zm-209.35 3.5176c-0.306 0.0428-0.45154 0.30993-0.4336 0.70703 0.01942 0.42699 0.12207 0.85009 0.1836 1.2754 0.47822 3.3059 0.44765 6.5916-0.04688 9.9102-0.29046 1.951-0.93448 3.8208-1.1797 5.7715-0.03387 0.27253 0.19483 0.50826 0.46679 0.48828 0.90859-0.06669 1.8178-0.12999 2.7246-0.2168l11.039-0.58984c1.3902-0.18695 2.7823-0.3539 4.1699-0.55859 2.6387-0.3893 1.9598-0.67994-0.70704-4.0176-0.56233-0.70372-1.1365-1.4002-1.7422-2.0664-3.7455-4.1193-7.7986-7.858-12.932-10.201-0.3859-0.17622-0.77755-0.3515-1.1836-0.4668-0.13758-0.03904-0.25737-0.04942-0.35937-0.03515zm329.76 4.9434c-0.67174 0.00556-1.3465 0.12898-2.0527 0.33594-10.655 3.1218-21.478 5.223-32.629 5.2207-0.23388-4e-5 -0.48562-0.03917-0.86328 0.36328 0.37871 0.50888 0.74209 0.9927 1.0996 1.4805 1.1609 1.5839 2.3851 3.1245 3.4668 4.7617 3.184 4.8193 5.7745 9.9909 8.5781 15.031 5.5335 9.9484 10.357 20.228 13.158 31.346 0.27389 1.087 0.91035 0.95342 1.623 0.95312 5.6846-0.00208 11.368-0.0139 17.053-0.01367 5.9545 1.9e-4 11.818-0.74962 17.586-2.2168 8.7224-2.2189 16.599-6.1001 23.418-12.092 0.97671-0.85832 1.1848-1.6775 0.87695-2.8691-1.1755-4.5513-2.8235-8.9034-5.2656-12.924-6.1419-10.111-14.974-17.116-25.527-21.979-5.9899-2.7599-12.325-4.6797-18.486-7.0254-0.69549-0.26477-1.3634-0.37859-2.0352-0.37305zm-189.46 1.4492c-1.2181-7.7e-4 -2.449 0.14832-3.7031 0.52149-2.3809 0.70836-4.9018 0.93759-7.3574 1.3945-2.5133 0.4677-5.0236 0.95225-7.5352 1.4297 0.00688 2.885-0.02395 5.7702 0.03125 8.6543 0.08875 4.6277-0.89526 9.0061-2.8516 13.18-1.2484 2.6633-2.5786 5.2807-4.2402 7.7129-0.10454 0.42389-0.32621 0.77534-0.8457 1.25 0.15849-0.56091 0.25967-0.91472 0.35937-1.2676 0.59324-2.5754 1.2899-5.123 1.7324-7.7363 0.72121-4.2587 0.45668-8.4584-0.50976-12.641-0.59517-2.5758-1.16-5.1586-1.7383-7.7383-0.91907-0.16425-1.811 0.0553-2.7109 0.1875-2.2257 0.32683-4.4525 0.63567-6.6797 0.95117-3.3077 0.4685-6.6162 0.9378-9.9238 1.4062 0.52851 2.0843 1.0784 4.163 1.5801 6.2539 1.1028 4.5962 0.73333 9.1595-0.37891 13.693-0.4354 1.775-0.9432 3.533-1.709 5.3144-0.02706-0.36767-0.08619-0.7367-0.07617-1.1035 0.04212-1.8487-0.09646-3.6891-0.18946-5.5332-0.1893-3.7441-1.1106-7.278-2.8144-10.607-1.1704-2.2871-2.3491-4.5705-3.5234-6.8555-0.10085-0.11684-0.20197-0.23476-0.30273-0.35156-0.15134-0.00693-0.3019-0.01448-0.45312-0.02149-0.65758 0.38795-1.4113 0.38345-2.127 0.46875-5.8736 0.7001-11.751 1.3697-17.627 2.0488 0.15996 1.295 0.75275 2.4596 1.1113 3.6953 0.73459 2.5319 0.91729 5.0615 0.34179 7.6504-0.54333 2.4442-1.2576 4.8234-2.6172 7.0508 0-1.5057 0.03962-3.0136-0.00977-4.5176-0.09834-3.0123-0.90885-5.8163-2.5723-8.3438-0.80968-1.2301-1.6485-2.4392-2.4512-3.6738-0.30974-0.4764-0.66778-0.87593-1.1855-1.1152-0.42678 0.30195-0.92704 0.23466-1.4043 0.28906-4.822 0.54927-9.6449 1.1001-14.467 1.6504 0.14165 0.27033 0.24803 0.56721 0.42969 0.80664 2.7621 3.6386 4.8873 7.6507 6.8164 11.777 2.6313 5.6288 4.7874 11.445 6.6152 17.381 0.33096 1.0748 0.7738 1.4403 1.9004 1.4453 2.9927 0.01139 5.9834 0.2178 8.9766 0.2871 11.61 0.26864 23.221 0.61371 34.832 0.74414 15.035 0.1689 30.063-0.13508 45.061-1.3555 6.3312-0.51519 12.636-1.2578 18.848-2.6348 3.2826-0.72764 6.5297-1.5932 9.5039-3.2441 1.2965-0.71965 1.3029-0.7478 0.6543-2.1211-1.943-4.1143-4.099-8.1145-6.4434-12.01-1.2212-2.0292-2.6222-3.9388-3.9629-5.8809-1.5816-2.2912-2.8593-4.8464-4.334-7.248-0.14019-0.1132-0.30703-0.20356-0.41602-0.34179-4.0569-5.1435-9.3185-8.386-15.605-9.9746-2.0032-0.50619-3.9972-0.9264-6.0273-0.92774zm-104.86 14.107c-8.2056 0.8522-16.409 1.7054-24.615 2.5547-2.1859 0.22623-4.3738 0.43777-6.5605 0.65625-4.7638 0.82175-9.593 1.0305-14.391 1.5312-1.5863 0.16561-1.567 0.11822-2.0449 1.6953-0.48094 1.5868-0.76839 3.3037-1.584 4.7012-1.58 2.7073-1.1327 5.2514-0.36914 8.0723 1.2016 4.4387 3.6145 7.8744 7.2129 10.582 0.45244 0.34041 1.0904 0.52469 1.248 1.1875h-0.00195c-1.5644 0.18402-2.9058-0.60949-4.3184-1.0527-3.8241-1.1997-6.8504-3.4571-8.9023-6.9746-0.22459-0.38502-0.35868-0.91799-0.98243-0.99414-1.3883 1.563-2.7826 3.1233-4.4355 4.4004-0.67229 0.51936-0.60845 1.0649-0.42969 1.7754 0.72025 2.8648 2.3266 5.1193 4.5723 6.957 0.65417 0.53534 1.307 1.0718 1.9609 1.6074-4.0111-0.73432-7.7196-1.9452-10.076-5.6055-0.75445-1.1718-0.81219-1.1665-1.9512-0.49414-3.6995 2.1839-7.5986 3.9476-11.572 5.5449-5.8402 2.3477-11.695 4.6582-17.541 6.9922-0.34249 0.13683-0.73482 0.22181-1.0352 0.59766-0.061 0.0765-0.11985 0.16165-0.17187 0.26563 0.67384 0 1.2143 9.1e-4 1.7559 0 35.584-0.0606 71.17-0.12188 106.75-0.1836 1.9565-3e-3 3.9129 0.00295 5.8691-0.03125 0.95016-0.0164 1.1983-0.08972 1.1094-0.71094-0.0232-0.15995-0.06293-0.34724-0.125-0.58984-0.79573-3.0948-1.5727-6.1973-2.4863-9.2578-2.5375-8.4995-5.583-16.801-9.9219-24.562-1.8322-3.2773-3.8512-6.4235-6.9668-8.6641zm-59.344 4.8301c-0.6372 0.00734-1.2753 0.02483-1.9121 0.05469-8.0566 0.37788-16.107 0.84613-24.162 1.2637-8.848 0.45862-17.683 1.114-26.514 1.8379-11.085 0.90876-22.139 2.0622-33.127 3.8008-4.0951 0.6479-8.1724 1.3987-12.303 2.4453 0.0475 0.84735 0.48038 1.3144 0.78906 1.8242 3.3646 5.5576 7.4121 10.543 12.324 14.793 9.2133 7.9707 19.904 12.285 32.004 13.125 1.1919 0.08279 2.2278-0.16517 3.2871-0.72852l6.7676-3.3574c7.0856-3.3393 14.456-5.9712 21.717-8.8789 4.4306-1.7743 8.7861-3.6972 12.863-6.2226 7.0509-4.3675 11.531-10.667 13.902-18.576 0.12159-0.40565 0.3061-0.81271 0.0664-1.3457-1.8828 0-3.7915-0.05717-5.7031-0.03516zm324.34 6.9375c-0.26106-0.06131-0.58584 0.1825-1.3535 0.5-0.84697 0.35024-1.6946 0.70249-2.5586 1.0059-6.3318 2.2237-12.927 3.1743-19.541 3.959-9.9033 1.175-19.86 1.6387-29.82 1.8457-15.347 0.31893-30.696 0.20175-46.041-0.27539-6.05-0.18811-12.1-0.36742-18.15-0.54883-0.29394-0.00901-0.60355-0.06755-0.98828 0.35547 4.1194 8.7123 7.43 17.765 7.5234 27.619 7.7e-4 0.0817 0.00977 0.16239 0.00977 0.24414 0.73342 0.18135 1.2458-0.04306 1.7734-0.16406 6.4505-1.4805 12.935-2.4604 19.6-2.3184 8.0074 0.17062 16.022 0.01382 24.033 0.00781 25.869-0.0181 51.737-0.03055 77.605-0.05273 0.63652-5.2e-4 1.3012 0.11244 1.8906-0.13086 0.08141-0.76793-0.16372-1.3368-0.32812-1.9258h-0.00391c-1.0598-3.797-2.4551-7.4723-3.9707-11.104-2.5371-6.079-5.4982-11.947-8.7148-17.686-0.50705-0.90472-0.70378-1.2707-0.96484-1.332zm-119.85 18.918-9.7539 2.1699c-8.0185 2.1007-16.228 2.9274-24.447 3.6016-8.1645 0.66964-16.356 0.93099-24.545 1.0703-19.443 0.33082-38.876-0.13273-58.305-0.86719-1.2706-0.04798-2.5487-0.17135-3.9824 0.03125 0.50234 2.1486 1.0062 4.2303 1.4707 6.3203 0.01651 0.07363 0.03837 0.13352 0.06055 0.19336 0.20849 0.54492 0.67431 0.55507 1.1894 0.55078 4.4902-0.03719 8.8798 0.78907 13.246 1.6895 12.137 2.5029 23.312 7.2354 33.229 14.811 9.717 7.4229 17.104 16.812 22.877 27.557 1.0446 1.9442 2.0307 3.9198 3.041 5.875 0.42882-0.19727 0.51011-0.56154 0.65234-0.89649 0.62433-1.4703 1.2337-2.9465 1.9023-4.3965 4.1406-8.9809 9.6695-16.943 17.012-23.592 7.9921-7.2379 17.227-12.252 27.35-15.711 1.109-0.37895 1.5432-0.52927 1.7266-1.0059h0.00196c0.12003-0.31211 0.13345-0.76241 0.1543-1.5117 0.15296-5.5013-1.0927-10.746-2.8789-15.889z" style="fill:#e7e7e7;stroke-width:.99999"/>
 <path class="st0" d="m907.42 707.98c0.76046-0.12817 1.497-0.0586 2.2019 0.27104-0.78991 0.37096-1.5769 0.71777-2.2019-0.27104z" style="stroke-width:.99999"/>
 <path class="st0" d="m905.58 707.77c0.26644-0.1395 0.51572-0.12151 0.74496 0.0819-0.30083 0.45763-0.53762 0.32362-0.74496-0.0819z" style="stroke-width:.99999"/>
 <path class="st0" d="m899.74 713.35c-0.44199-0.0228-0.71473-0.26154-0.8492-0.67636 0.51911-0.0753 0.81771 0.13034 0.8492 0.67636z" style="stroke-width:.99999"/>
 <path d="m614.75 257.15c-2.3376-0.01913-4.6697 0.04783-6.9805 0.52149-1.1849 0.24644-2.8214 3.6872-2.248 4.75 0.25994 0.49284 0.72003 0.82397 1.2246 1.0781 0.92497 0.47748 1.8873 0.85553 2.8965 1.1328 1.1162 0.30031 2.2177 0.66334 3.3262 1.0176 0.30587 0.10783 0.78718 0.11412 0.61133 0.71484h-6.5664c-2.2705-8e-3 -4.5196-0.21465-6.752-0.60742-1.2386-0.21561-1.3379-0.46996-0.53516-1.502 0.64216-0.82399 1.3311-1.6091 2.0039-2.4023 0.6192-0.72392 1.283-1.4171 1.8106-2.5723-1.5597 0.21561-2.5976 0.97787-3.668 1.6094-3.0045 1.7867-5.7423 3.9742-8.6016 5.9688-2.4158 1.6866-4.8862 3.2422-7.7148 4.1894-3.7844 1.2707-7.6752 2.0089-11.574 2.7559-3.1192 0.60072-6.276 1.0163-9.3418 1.8711-2.607 0.72393-4.5942 2.2412-5.5957 4.875-0.38997 1.032-0.74152 2.0802-0.97851 3.166-0.3516 1.5865-0.29854 1.8168 1.3223 2.1172 2.1788 0.40819 4.3719 0.37777 6.5508-0.10742 1.4908-0.33115 2.8069-1.1091 4.4277-1.7637-0.19115 1.6327-1.2093 2.4037-2.2031 3.1738-3.6315 2.8187-6.5052 6.2998-8.791 10.289-0.73401 1.2938-0.95544 2.7941-0.43555 4.0879 1.2538 3.0882 3.4636 5.3676 6.7051 6.3457 1.9266 0.5776 3.983 0.69466 5.8867 1.3262 2.003 0.65459 3.8599 0.29183 5.7559-0.19336 0.94803-0.24644 1.8659-0.59225 2.791-0.89258 2.8516-0.91645 5.6183-2.0576 8.5234-2.7969 3.4633-0.87797 6.3006 0.09403 8.4336 2.9512 2.6223 3.5118 3.3782 7.5852 3.2559 11.859-0.061 2.0485-1.2003 3.5728-2.8594 4.6894-1.3455 0.90874-2.8515 1.386-4.4492 1.6016-4.6406 0.61609-9.1283-0.21539-13.562-1.4707-2.1177-0.59301-4.1731-1.3937-6.2832-2.0098-1.6972-0.50061-3.1888 0.8167-2.9824 2.5957 0.0843 0.73158 0.351 1.4096 0.77149 2.0488 0.818 1.2476 1.843 2.2943 2.8828 3.334 3.662 3.6427 7.9134 6.5931 11.721 10.066 0.46641 0.43127 1.0239 0.63141 1.666 0.66992 4.2508 0.24644 8.1113-0.82527 11.498-3.4668 1.552-1.2091 2.9281-2.6097 4.1894-4.1192 0.95568-1.1321 0.98627-1.1161 2.2324-0.36914 2.844 1.6943 5.757 3.2498 8.8457 4.4512 3.3944 1.3092 6.9038 2.1333 10.543 2.0332 4.6635-0.13863 8.8539-1.7099 12.439-4.752 0.93272-0.79321 1.8038-0.91638 3.0117-0.66993 3.7844 0.75471 7.5985 1.217 11.475 0.55469 1.1086-0.19254 1.7443-0.75589 2.1953-1.7031 0.44345-0.93958 0.40484-1.8933 0.25195-2.8867-0.31342-1.9638-1.0699-3.7825-1.7656-5.623-0.13758-0.3697-0.44369-0.73999 0.00976-1.2637 0.49693 0.56217 0.99258 1.0939 1.459 1.6484 1.6055 1.933 3.2033 3.8813 4.8164 5.8066 1.0627 1.2707 2.4083 1.0324 3.0352-0.50782 0.092-0.22336 0.11612-0.47821 0.15429-0.7246 0.61164-3.7968 0.12894-7.3545-2.1875-10.535-0.32873-0.45436-0.82454-0.8702-0.83984-1.4863 0.42813-0.25411 0.67967-0.04496 0.94727 0.08594 2.4235 1.2322 4.2896 3.0261 5.4746 5.5059 0.27525 0.56989 0.40471 1.27 1.0469 1.5703 0.79514-0.50831 0.93988-1.2162 0.87109-1.9863-0.44344-4.8056-1.6053-9.3334-5.0762-12.945-0.25239-0.26187-0.7573-0.46261-0.55859-1.1172 3.2721 0.80092 6.0174 2.3022 7.6992 5.375 0.17585 0.32349 0.28327 0.75509 0.73437 0.70117 0.45875-0.0539 0.45043-0.50905 0.50391-0.86328 0.36691-2.1872 0.82583-4.3579 1.0781-6.5527 0.75687-6.6847 0.78823-13.392 0.65821-20.107-0.031-1.6635-0.38975-3.4052 0.01562-4.9531 0.41283-1.625 1.9418-2.7799 2.9434-4.1738 2.1865-3.0497 4.3946-6.1215 5.3809-9.8027 1.0933-4.1125 0.39815-6.9942-4.5254-8.4883h-0.00195c-1.873-0.56219-3.8088-0.80751-5.7812-0.86914-4.9769-0.1617-9.8616 0.73079-14.777 1.293-1.3074 0.14634-1.3981 0.40756-0.84765 1.7168 1.552 3.6812 2.9661 7.4167 4.0976 11.252 1.3761 4.6131 2.3318 9.2967 2.2324 14.156-0.12239 6.6385-2.6461 12.167-7.4473 16.688-3.9372 3.712-8.5693 6.2997-13.432 8.5254-6.2996 2.8803-12.876 4.9749-19.512 6.8848-1.529 0.43897-3.0262 1.1173-4.9375 1.125 1.3685-1.1706 2.6826-1.949 3.9746-2.7422 6.4832-3.9585 13.234-7.4395 19.572-11.637 3.639-2.4105 7.1407-4.9826 10.092-8.2402 2.3776-2.6262 4.2661-5.5129 4.916-9.1094 0.35925-2.01 0.0219-3.9204-0.42188-5.8457-0.0765-0.30802-0.28291-0.58609-0.62695-0.59375-0.25229-8e-3 -0.39716 0.23946-0.51953 0.45508-0.1834 0.31577-0.35979 0.64706-0.5586 0.95508-1.5137 2.4105-3.3106 4.5662-5.4512 6.4453-4.243 3.7274-9.1264 6.3458-14.279 8.5176-5.2598 2.218-10.726 3.758-16.238 5.1211-1.2844 0.31574-2.585 0.8316-3.9688 0.53125l-0.04492 0.04688c0.01-0.0231 0.03031-0.05469 0.03711-0.05469 0.76452-0.62381 1.6751-0.98494 2.5391-1.4316 7.7904-4.0432 15.343-8.4493 22.086-14.133 3.9066-3.2884 7.4933-6.9068 9.8633-11.543 2.8058-5.4987 2.674-10.867-0.70507-16.104-0.53522-0.83945-1.1839-1.3397-2.1777-1.4707-1.4526-0.17711-2.9046-0.39392-4.3496-0.625-1.3914-0.21561-1.4681-0.16865-1.2617 1.2715 0.51223 3.6273 0.67908 7.2391-0.33008 10.812-0.54276 1.9099-1.2064 3.7659-2.3379 5.8144-0.25229-1.3324-0.17563-2.2953-0.16796-3.2656 0.0533-4.305-0.61207-8.4561-2.6074-12.314-0.52755-1.0397-1.1618-2.0241-1.7734-3.0176-0.46631-0.73934-1.2476-0.88631-1.9356-0.58594-0.64226 0.28493-0.26753 0.97037-0.17578 1.4863 0.0233 0.12325 0.08466 0.23798 0.10742 0.35352 1.3226 6.161 0.7332 12.061-2.4473 17.629-0.12227-1.5711-0.07547-3.1496-0.1289-4.7207-0.1988-5.4371-1.8421-10.381-5.1602-14.717-0.45866-0.59297-0.93237-1.133-1.7734-1.1484-0.7798-0.01348-1.5606-0.02878-2.3398-0.03516zm48.922 6.7812c2.7523-0.0384 4.4486 1.6555 4.5098 4.4434 0.0765 3.8429-1.6212 7.0388-3.6777 10.535-2.0489-4.7979-3.1183-9.8104-7.8965-12.236 0.10705-0.27723 0.11522-0.44598 0.19922-0.49219 2.1177-1.263 4.3577-2.2038 6.8652-2.25zm-60.365 4.0312c1.3729 0.05018 2.7106 0.34154 4.0352 0.72852 3.8838 1.1321 7.453 2.981 11.459 4.9141-5.2446 2.8495-10.023 5.5828-15.604 6.3144-1.812 0.23873-3.6074 0.02436-5.1211-0.99219v-0.00195c-2.7064-1.8098-5.6658-2.1239-8.7773-1.916-0.84097 0.0539-1.6967 0.00781-2.5606 0.00781-0.27525-0.56989 0.20628-0.73979 0.52734-0.97852 1.4144-1.032 3.1034-1.4414 4.709-1.9805 2.3852-0.80863 4.419-2.0331 5.9785-4.0586 0.98632-1.2784 2.3709-1.8633 3.9688-2.002 0.46636-0.04237 0.92713-0.05188 1.3848-0.03516zm-36.439 21.699c4.2814 1.1706 8.5644 2.3411 12.846 3.5117 1.4068 0.38506 2.8275 0.75382 4.2266 1.1543 0.46641 0.13863 0.97155 0.31596 0.91797 0.9629-0.0455 0.55447-0.52051 0.65527-0.92578 0.7246-4.6558 0.78551-9.2428 1.279-13.111-2.3945-1.3226-1.2476-2.8751-2.257-3.9531-3.959zm107.61 3.4023c0 0.91215 0.00195 1.7543 0.00195 2.5957 0.04118 7.2285-0.57491 14.387-2.2949 21.422-1.2086 4.9431-3.0545 9.6107-6.166 13.682-3.836 5.0187-8.9393 7.8333-15.102 8.9356-3.9184 0.70084-7.799 0.54675-11.672-0.0918-1.4745-0.24313-2.5972 0.16795-3.7305 1.002-2.6663 1.9621-5.7264 3.039-8.918 3.6816-3.8337 0.77191-7.6495 0.47316-11.443-0.46875-1.4868-0.36914-2.9203-0.89016-4.3906-1.2969-1.5684-0.43381-1.6184-0.41539-1.6504 1.2695-0.03423 1.7243-0.02344 3.449-0.02344 5.1738-9.6e-4 0.49225 0.02117 0.97447 0.20312 1.4512 2.6717 6.9999 5.3325 14.003 7.9961 21.006h0.00195c0.47939 0.81624 0.89082 1.6503 0.79492 2.8789-1.5499-1.2195-2.6739-2.5638-3.8809-3.8203-0.00533-0.08684-0.05247-0.13082-0.13867-0.13282-1.1347-1.1133-2.2634-2.2334-3.4102-3.334-0.24939-0.23928-0.50861-0.58796-0.92968-0.41602-0.43375 0.17698-0.38155 0.6307-0.34375 0.95703 0.29066 2.4995 0.07939 5.0304 0.47265 7.5215 0-3e-4 0.01367 0.02734 0.01367 0.02734 0.10628 0.18647 0.21061 0.3735 0.31641 0.5586 0.03 0.11706 0.04146 0.24646 0.09766 0.35156 2.7986 5.2557 5.6074 10.507 8.3926 15.77 0.26585 0.50236 0.74234 0.97792 0.5664 1.668-0.67345-0.03073-1.0432-0.49031-1.4707-0.79883-1.9356-1.3968-3.8344-2.8451-5.7656-4.248-0.4668-0.33909-0.89189-1.0666-1.5488-0.71484-0.65204 0.34932-0.30651 1.1128-0.28124 1.6894 0.32504 7.3133 0.86458 14.606 1.668 21.887 0.85085 7.7119 2.1187 15.328 4.1113 22.826 1.7907 6.7385 4.2298 13.213 7.5156 19.355 5.6218 10.509 13.399 19.006 23.428 25.393 0.23838 0.17288 0.47842 0.34671 0.7168 0.51953 0.39077 0.02919 0.75437-0.02884 0.78515-0.51367 0.0242-0.36177 0.01014-0.74079-0.07226-1.0918-0.90046-3.8336-1.3419-7.7392-1.0273-11.645 0.20356-2.5265 0.08614-5.117 0.93554-7.5977 0.34336-1.0027 0.29402-2.1401 0.5-3.2187 0.63984-3.3504 1.7562-6.5464 2.7793-9.7754 0.08749-0.27589 0.35291-0.49474 0.53516-0.74023 0.49779-1.2364 0.58591-2.5886 1.1367-3.8203 0.63392-1.4175 1.6229-2.7609 1.1777-4.4863-0.05028-0.19455 0.10918-0.45948 0.20508-0.67578 2.209-4.9984 4.4115-9.9991 6.6367-14.99 3.2261-7.2365 6.2824-14.548 9.6856-21.705 5.1204-10.768 10.605-21.352 16.021-31.969 4.0474-7.9328 8.2391-15.799 11.418-24.146 1.2682-3.3302 2.3694-6.6979 2.7129-10.309 0.29231-3.0735-1.8358-4.653-3.2695-6.8398-0.54131 0.66667-0.70201 1.2034-0.84375 1.7324-1.3924 5.1973-3.592 10.061-6.0371 14.82-4.7578 9.2603-10.553 17.871-16.371 26.469-6.5034 9.6104-13.246 19.061-19.18 29.053-3.14 5.2875-6.049 10.69-7.8457 16.623-0.05319 0.17569-0.09741 0.36292-0.19141 0.51562-0.15986 0.25851-0.34561 0.5363-0.71484 0.42774-0.32389-0.09519-0.4896-0.3588-0.5293-0.68359-0.0223-0.17958 0.00409-0.36621 0.02149-0.54883 0.18166-1.8999 0.28725-3.8111 0.5625-5.6973 1.1884-8.1452 3.546-15.943 6.959-23.422 4.9839-10.921 11.654-20.776 18.877-30.279 4.8283-6.3529 9.9344-12.494 14.432-19.1 2.6676-3.9184 5.0627-7.9393 6.2539-12.645 0.88787-3.5071-1.0609-5.7281-2.8906-8.1016-0.2486-0.32248-0.64696-0.31469-0.8418 0.18164-0.13467 0.3429-0.29899 0.67527-0.42969 1.0195-2.0886 5.4997-5.0907 10.493-8.3672 15.334-4.413 6.5196-9.411 12.584-14.373 18.676-5.4655 6.7103-11.025 13.348-15.91 20.516-3.7804 5.5469-7.204 11.283-9.2383 17.752-0.05513 0.17559-0.11297 0.35403-0.20117 0.51367-0.18225 0.3288-0.41403 0.67256-0.83984 0.54493-0.3112-0.09327-0.42407-0.42311-0.41407-0.75391 0.0048-0.24602 0.01481-0.49331 0.03711-0.73828 0.24154-2.6373 0.57603-5.2675 1.1602-7.8457 1.9833-8.7538 5.8193-16.671 10.834-24.051 4.5703-6.726 9.8302-12.874 15.314-18.846 4.3988-4.7894 8.8761-9.512 12.82-14.705 2.2387-2.9476 4.3177-5.9991 5.293-9.6289 0.52357-1.9488 1.0122-4.0191-0.25-5.8809-2.9983-4.4224-6.0636-8.799-9.1055-13.191-0.26237-0.37889-0.48005-0.83894-1.2871-0.83594zm-26.863 186.3c-0.0027-2e-4 -0.00512 2.1e-4 -0.00781 0l0.04296 0.02539c-0.01167-0.00846-0.02347-0.01692-0.03515-0.02539zm-83.977-184.09c2.0871 0.12324 3.6683 0.79963 5.2891 1.2617 5.8103 1.6481 11.706 2.8958 17.646 3.9277 0.17585 0.0308 0.35937 0.03159 0.54297 0.05469 0.51979 0.0693 0.73406 0.39969 0.71875 0.89258-0.01 0.41585-0.24553 0.67865-0.66601 0.74023-3.2493 0.46211-6.4296 1.3775-9.7246 1.5469-2.2707 0.10782-4.3265-0.55316-6.2148-1.8008-2.7141-1.7867-5.0536-4.0123-7.5918-6.623zm143.42 42.275c-0.06395 0.00895-0.13047 0.03078-0.20117 0.07227-0.33464 0.40877-0.18378 0.92323-0.20508 1.3945-0.09368 2.0992-0.45265 4.1713-0.85937 6.2129-1.2065 6.0554-3.2707 11.839-5.8086 17.455-4.0854 9.0411-9.1536 17.532-14.311 25.973-6.1172 10.012-12.478 19.878-18.061 30.213-2.48 4.5913-4.9021 9.2163-6.8203 14.086-0.22962 0.70132-0.45973 1.402-0.68945 2.1035-0.11956 0.7992-0.12251 1.6433-0.85157 2.2031 0.06239 0.43023-0.12379 0.77514-0.37695 1.0938 0.04127 0.73441-0.21794 1.3456-0.75391 1.8418 0.09378 0.40511-0.09302 0.71921-0.32031 1.0215 0.16674 0.58666-0.14877 1.0736-0.32617 1.5898-1.8962 5.5189-3.3703 11.145-4.2656 16.92-0.11269 0.72641-0.19052 1.4653-0.20312 2.1992-0.00833 0.49635 0.35619 0.59608 0.75391 0.39453 0.21092-0.1069 0.38096-0.30158 0.55468-0.47266 4.2274-4.1657 8.4436-8.3437 12.689-12.49 0.72953-0.71275 1.0555-1.4803 0.82617-2.4707-0.25791-1.1138-0.04781-2.1737 0.21484-3.2656 0.57957-2.4095 1.5473-4.648 2.709-6.8164 2.4178-4.5131 5.614-8.471 8.752-12.471 0.19704-0.25125 0.40764-0.45042 0.74609-0.44726 0.06404-0.18473 0.12946-0.36996 0.19336-0.55469 0.12828 0.2444 0.04725 0.42918-0.16406 0.57617-0.05484 0.42497-0.03489 0.87631-0.17383 1.2715-1.9159 5.4492-3.6264 10.966-5.3066 16.492-0.78642 2.5861-1.6562 5.1554-2.2383 7.7891-0.23902 1.0812-0.52887 1.95-1.3223 2.7051-2.2756 2.1658-4.2103 4.6259-5.9531 7.2383-5.971 8.9505-9.4822 18.987-12.654 29.17-0.13623 0.43719-0.36664 0.96493 0.26758 1.2852 0.63973-0.313 0.94377-0.93857 1.3516-1.4609 5.3536-6.8574 11.985-11.879 20.361-14.396 0.5849-0.17581 1.1794-0.31883 1.7754-0.45312 0.31691-0.07147 0.61482-0.01276 0.7461 0.3457 0.12372 0.33794-0.02264 0.61126-0.27735 0.80273-0.19135 0.14381-0.4279 0.24231-0.6582 0.31641-4.7849 1.5389-8.3714 4.7361-11.521 8.5078-4.6172 5.5284-7.7567 11.921-10.568 18.502-0.25793 0.60359-0.29909 1.1588-0.13477 1.7852 0.60796 2.3179 1.1845 4.6424 1.7754 6.9648 0.4543 1.7856 0.90759 3.5722 1.3711 5.3555 0.06065 0.23332 0.1398 0.48855 0.41602 0.56055 0.38192 0.09972 0.5396-0.18444 0.68164-0.45312 0.17236-0.3258 0.3274-0.66133 0.48242-0.9961 1.3704-2.9587 2.8859-5.8396 4.5254-8.6562 4.5858-7.8784 10.51-14.481 18.123-19.516 4.4511-2.9436 9.1998-5.366 13.773-8.0938 4.6024-2.7449 8.8075-5.979 12.645-9.7227 0.67898-0.66246 0.87041-1.3353 0.78711-2.2969-0.20753-2.39-0.28075-4.7953-0.34375-7.1953-0.05067-1.9292 0.60441-3.5801 1.957-5.0078 1.2636-1.3337 2.4242-2.774 3.5625-4.2207 7.4201-9.4309 13.937-19.453 19.518-30.1 4.739-9.0412 8.1996-18.535 10.012-28.596 1.1596-6.4398 1.4913-12.957 1.2558-19.504-0.03206-0.89138-0.4155-1.477-0.99023-2.0762-2.339-2.4386-4.8631-4.6793-7.3418-6.9668-0.43066-0.39748-0.82242-1.1832-1.457-0.9375-0.75435 0.29209-0.46697 1.1901-0.48437 1.8223-0.17042 6.231-0.99404 12.397-1.9766 18.531-1.226 7.6547-2.9622 15.21-5.1777 22.641-3.4018 11.408-7.8209 22.393-13.703 32.748-4.5739 8.0517-9.939 15.514-16.484 22.076-2.6481 2.6547-5.486 5.0883-8.498 7.3125-0.35954 0.2655-0.77273 0.83312-1.2617 0.38867-0.57531-0.52304-0.00554-1.0008 0.29297-1.418 0.75154-1.05 1.4361-2.1345 2.041-3.2793 2.1916-4.1475 3.6341-8.5904 5.1348-13.014 1.2622-3.7205 2.3412-7.5099 4.0742-11.055 0.48792-0.99804 0.94351-2.1047 1.8711-2.6992 1.5269-0.97856 2.3883-2.4362 3.252-3.918 4.1914-7.1912 7.3272-14.878 10.289-22.631 4.892-12.806 9.2184-25.799 12.297-39.188 0.89765-3.9037 1.5406-7.8444 1.9609-11.828 0.16257-1.5406-0.22078-2.658-1.4941-3.668-2.7355-2.1698-5.3356-4.5105-7.9922-6.7813-0.18641-0.15928-0.36122-0.34093-0.56836-0.46679-0.56359-0.34268-0.93334-0.18886-1.0234 0.48437-0.0426 0.30373-0.02362 0.6146-0.04101 0.92188-0.25433 4.4897-0.75171 8.9572-1.5684 13.373-1.3881 7.5058-3.447 14.838-5.9375 22.049-4.7687 13.808-10.946 26.988-17.621 39.939-4.447 8.6283-9.2262 17.085-13.213 25.951-0.16344 0.36351-0.25364 0.81047-0.71094 1.0469-0.3392-0.43532-0.20336-0.93242-0.19336-1.3848 0.05949-4.5823 0.92718-9.0546 1.9746-13.484 1.2164-5.1438 2.7941-10.19 4.3223-15.248 1.4576-4.8246 2.8675-9.6544 4.8066-14.322 4.1509-9.9916 8.773-19.772 13.084-29.691 3.5031-8.0605 7.0002-16.113 9.3262-24.617 0.76133-2.7838 1.4646-5.593 1.4375-8.5215-0.00717-0.76006-0.0928-1.4479-0.68555-2.0215-1.5874-1.5359-3.1399-3.1072-4.7168-4.6543-0.12694-0.12451-0.28861-0.22605-0.48047-0.19922zm45.305 42.869c-0.12029-0.01347-0.25743 0.00901-0.41797 0.0918 0 1.1475-0.03123 2.3195 0.00977 3.4824 0.25229 7.4318-0.53452 14.754-2.4688 21.932-2.2476 8.3097-5.9107 15.996-10.482 23.258-3.9066 6.2072-8.5622 11.838-13.012 17.629-1.9725 2.5722-4.2045 4.9823-5.1602 8.2168-0.74156 2.5337-1.629 5.0305-2.4394 7.5488-0.77218 2.4182-1.1298 4.8594-1.084 7.4316 0.19881 10.235 0.01006 20.447-1.957 30.543-0.17585 0.90874-0.016 1.2712 0.95508 1.5254 4.7552 1.2322 9.5874 1.8775 14.473 2.1855 10.879 0.67772 21.758 0.16276 32.637-0.19922 10.818-0.36965 21.635-0.69436 32.445 0.1836 6.4143 0.51598 12.722 1.5722 18.846 3.5976 7.2782 2.4105 13.632 6.2463 18.777 12.076 5.321 6.0378 10.298 12.344 15.076 18.82 2.2248 3.0112 4.3722 6.0848 6.5664 9.1191 0.367 0.5006 0.61949 1.2007 1.4375 1.1699 0.367-0.6546 0.2526-1.2782 0.28321-1.8789 0.0688-1.3554 0.04452-2.7032 0.2207-4.0586 0.77218-5.7529 2.2862-11.321 4.2051-16.781 3.0275-8.5869 6.7809-16.873 10.336-25.236 2.8669-6.7309 5.6345-13.493 7.5-20.594 0.13756-0.52368-0.06021-1.2482 0.75-1.6641 1.3532 2.1718 2.0786 4.4676 2.2773 6.9551 0.50467 6.2534-0.78759 12.246-2.5918 18.16-2.5994 8.533-6.2067 16.695-9.2266 25.074-1.9954 5.5449-4.2595 10.999-5.6738 16.744-1.0092 4.0894-1.491 8.2248-1.5293 12.43-0.01 0.68542-0.03624 1.3778 0.33789 1.9785 1.2691 2.0254 2.5444 4.0582 3.8594 6.0605 0.38986 0.60073 0.94112 0.53971 1.2852-0.09179 0.16819-0.31577 0.25152-0.68494 0.32031-1.0469 1.7278-9.0028 3.9454-17.874 7.0723-26.492 3.3714-9.3108 7.7912-18.053 14.045-25.77 1.5214-1.8791 2.0943-2.0108 4.1738-0.86328 0.32108 0.17716 0.61992 0.39351 0.92579 0.59375 2.2247 1.4479 4.1502 3.2573 6.0156 5.1211 3.9602 3.943 7.5916 8.1786 11.062 12.568 4.7706 6.0224 9.2965 12.207 13.027 18.961 0.27525 0.50054 0.40493 1.1699 1.1465 1.4395 0.42814-0.51601 0.37473-1.1392 0.45117-1.7168 0.33639-2.5876-0.30518-4.9209-1.3984-7.2852h-0.00586c-4.1513-9.0413-9.5638-17.304-15.244-25.398-6.3226-9.0028-12.439-18.13-17.484-27.941-5.8409-11.375-10.138-23.304-12.699-35.842-1.4372-7.0621-2.2702-14.215-2.5684-21.424-0.17585-4.1202-0.19923-8.2491-0.11523-12.377 0.0155-0.69312 0.09925-1.424-0.71875-1.709-1.6132-0.56218-3.2332-1.1163-4.877-1.5938-0.7187-0.2079-0.99452 0.17682-0.83398 0.92382 0.41283 1.9253 0.81115 3.8502 1.1934 5.7832 0.86383 4.4128 1.552 8.8576 1.873 13.332 0.4664 6.5153 0.56485 13.03-0.30664 19.545-0.66512 4.9519-1.7575 9.7891-3.3476 14.525-1.9878 5.8992-4.573 11.527-7.3711 17.08-3.9526 7.8399-8.0721 15.61-11.008 23.928-1.8425 5.2215-3.3191 10.544-4.3359 16.004-0.22932 1.2168-0.22139 2.519-0.78711 3.7051-0.44344-0.26958-0.53487-0.61664-0.61132-0.98633-0.51988-2.5337-0.97924-5.0744-1.1934-7.6543-0.57337-6.908 0.42866-13.616 2.5234-20.193 1.8272-5.7529 4.2974-11.245 6.8203-16.705 3.6543-7.917 7.4612-15.763 9.793-24.234 1.7355-6.315 2.7437-12.731 2.9961-19.27 0.25994-6.7386-0.43508-13.408-1.666-20.016-0.45865-2.4721-1.1236-4.9046-1.6894-7.3613-0.14523-0.64692-0.45059-1.1024-1.1387-1.2949-3.4708-0.96266-6.9277-1.9939-10.406-2.9258-1.3532-0.36194-1.5584-0.09391-1.2832 1.2461 0.44345 2.1025 0.97056 4.1986 1.3223 6.3164 1.0015 6.0686 1.9656 12.138 2.4473 18.283 0.79505 9.9578 0.40495 19.791-1.7969 29.541-1.7584 7.7706-4.8786 14.934-9.2363 21.572-3.7309 5.6836-8.409 10.557-12.904 15.586-0.0843 0.0924-0.16777 0.17899-0.25196 0.26368-0.24464 0.24645-0.54311 0.36029-0.81836 0.15234-0.35925-0.26186-0.32075-0.62218-0.07617-0.96875 0.1835-0.24644 0.37324-0.48597 0.55664-0.73242 2.9129-3.9815 5.275-8.2861 7.2168-12.814 2.5765-5.9993 4.5034-12.199 5.9941-18.561 1.0933-4.6747 1.9574-9.3948 2.5996-14.146 0.68808-5.1214 1.1249-10.274 1.3008-15.449 0.25995-7.8861 0.22823-15.766-0.76562-23.613-0.32873-2.6184-0.84808-5.2063-2.1172-7.5938-0.51224-0.97037-1.186-1.5171-2.1875-1.7558-2.6146-0.63151-5.2213-1.292-7.8359-1.9004-1.4678-0.33885-1.6581-0.15544-1.3828 1.2539 1.0473 5.3909 1.6898 10.837 1.9727 16.305 0.47406 9.049 0.23704 18.082-1.5137 27.039-1.1774 6.0609-2.8757 11.945-5.0547 17.705-3.5626 9.3802-8.1877 18.276-12.393 27.363-0.12992 0.27728-0.2758 0.55413-0.47461 0.78516-0.0994 0.11553-0.32791 0.16982-0.4961 0.16211-0.2676-0.0231-0.42773-0.22473-0.42773-0.50196 0.01-0.30807 0.01518-0.62336 0.08398-0.91601 0.41283-1.856 0.8186-3.72 1.2774-5.5606 1.5672-6.1996 3.2562-12.359 4.7012-18.582 1.9571-8.4483 3.7233-16.929 4.8242-25.547 0.93272-7.2854 1.4517-14.579 1.2988-21.918-0.13002-6.3613-0.87798-12.638-2.5293-18.799-0.27525-1.0474-0.76507-1.4936-1.8125-1.7246-3.6926-0.83175-7.3464-1.8322-11.039-2.6562-1.2003-0.26953-2.3944-0.92434-3.7246-0.55469 0.01 0.26182-0.02295 0.45349 0.03125 0.61523 1.4984 4.382 2.378 8.8888 2.875 13.502 0.7033 6.5307 0.47474 13.037-0.32031 19.529-0.68042 5.5526-1.8205 11.029-3.3418 16.428-3.1422 11.128-7.4919 21.718-13.639 31.529-1.7279 2.7647-3.7002 5.3521-5.9785 7.6934-0.29811 0.30031-0.61963 0.70811-1.0859 0.37695-0.47397-0.33114-0.20632-0.75541 0.02344-1.1328 0.55041-0.88562 1.1093-1.7708 1.6445-2.6641 4.373-7.3316 7.5063-15.171 9.4941-23.488 1.0473-4.3743 1.7887-8.7873 2.3086-13.262 0.64225-5.5757 0.94079-11.175 0.82617-16.773-0.13002-6.523-0.53446-13.039-1.3066-19.531-0.57337-4.821-1.3149-9.6263-1.9648-14.447-0.12227-0.90109-0.48297-1.4173-1.4004-1.6406-1.896-0.46211-3.7677-1.025-5.6484-1.5332-1.2385-0.33119-2.4783-0.64541-3.7168-0.97656-0.35169-0.10011-0.71798-0.30081-1.0391-0.03125-0.37466 0.30804-0.07637 0.67081 0.02343 1.002 0.0843 0.30037 0.19162 0.58431 0.29102 0.87696 2.0948 6.2303 3.0279 12.684 3.3184 19.215 0.34404 7.7937-0.63614 15.494-2.3027 23.088-1.3532 6.1841-3.2555 12.222-5.6484 18.098-3.4097 8.3482-7.5388 16.289-13.234 23.312-1.7355 2.1487-3.5937 4.2121-6.002 5.6445-0.98621 0.5776-1.9726 1.2338-3.2188 1.0566-0.0155-0.50826 0.26097-0.84114 0.49805-1.2031 6.7124-10.189 11.376-21.316 14.633-33.061 1.4909-5.3909 2.6059-10.859 3.5156-16.389 1.208-7.3701 1.7664-14.787 1.9805-22.234 0.19881-6.9003-0.21382-13.785-0.9707-20.646-0.0993-0.83942-0.42023-1.1713-1.1465-1.4023-2.3318-0.72393-4.6409-1.5318-6.9726-2.248-1.2996-0.40048-1.4835-0.23033-1.5371 1.1328-0.01 0.24644 0.00976 0.49183 0.00976 0.73828 0 7.4626-0.38891 14.894-1.291 22.303-1.0015 8.2019-2.6766 16.25-5.2148 24.113-2.4465 7.5857-5.7642 14.763-9.9766 21.51-5.4893 8.7949-12.232 16.596-19.182 24.221-0.24464 0.26953-0.50436 0.5307-0.79492 0.76172-0.20637 0.16175-0.46736 0.10117-0.67383-0.06055-0.22167-0.17711-0.24361-0.44644-0.1289-0.6621 0.29822-0.53139 0.6265-1.0563 0.96289-1.5723 6.483-9.8885 11.973-20.316 16.553-31.221 4.1743-9.9423 7.4004-20.177 9.4492-30.781 0.81801-4.2357 1.4358-8.4955 1.8027-12.785 0.58878-6.8233 0.71281-13.645-0.18164-20.461-0.12237-0.93958-0.51971-1.3881-1.3301-1.75-1.8349-0.83175-3.6317-1.7624-5.4512-2.625-0.30396-0.14439-0.52194-0.52207-0.88281-0.5625zm133.25 39.77c-0.43403-0.01675-0.59602 0.32493-0.60352 0.92774-0.0029 0.30769-0.0109 0.61698-0.0332 0.92383-0.44926 6.2808-0.19475 12.542 0.47851 18.795 0.60681 5.6369 1.6924 11.183 3.2148 16.633 2.9071 10.407 7.2658 20.209 12.432 29.66 4.6841 8.5699 9.8886 16.831 14.752 25.295 3.8237 6.6546 7.7516 13.257 10.578 20.436 0.13312 0.33808 0.2899 0.6747 0.73828 0.97656 0.39701-1.0366 0.31174-2.0297 0.33984-3.0078 0.09815-3.446 0.10022-6.8974 0.3125-10.336 0.0965-1.5638-0.20052-2.8399-1.0879-4.1328-4.551-6.6309-9.0264-13.314-13.297-20.133-6.9829-11.15-13.433-22.579-17.826-35.066-2.4538-6.9748-4.3078-14.095-5.0352-21.479-0.33455-3.3974-0.14163-6.7606 0.80078-10.059 0.5944-2.0797 1.61-3.9706 2.7148-5.8379-0.53616-0.48155-1.0533-0.76348-1.6387-0.98047-1.202-0.4455-2.3772-0.9653-3.5703-1.4356-0.90898-0.35825-1.8411-0.65804-2.7402-1.0391-0.20983-0.08892-0.38462-0.13504-0.52929-0.14063zm-277.65 0.41211c-0.60331 0.03558-0.85608 0.5063-1.1914 0.83789-3.3218 3.2847-6.9109 6.2549-10.662 9.0195-12.944 9.5398-27.04 16.981-41.869 23.027-4.6894 1.9118-9.0328 4.3087-13.027 7.4141-5.7723 4.4875-10.978 9.598-16.18 14.719-6.1192 6.0237-12.021 12.274-18.438 17.988-2.4284 2.1628-4.8738 4.3075-6.875 6.8984-1.9613 2.5392-3.7167 5.1998-4.4961 8.3809-0.14581 0.594-0.51541 1.2296 0.01563 1.9863 1.3914-1.1177 2.5368-2.4471 4.7266-2.7305-1.3473 1.6916-2.3128 3.2469-2.8711 4.9844-0.55112 1.7151-1.0794 3.4724-0.625 5.3984 1.5006-1.1199 1.5013-1.1198 2.5312 0.26563 0.14649 0.19711 0.27952 0.40658 0.44141 0.58984 0.23291 0.26345 0.36 0.71035 0.80664 0.65625 0.56875-0.06881 0.53862-0.57903 0.60742-0.98828 0.43007-2.5627 1.5994-4.7577 3.2891-6.6894 0.25579-0.29226 0.44682-0.73563 1.0781-0.56836-0.46776 1.7932-1.1492 3.5085-1.332 5.3496-0.26275 2.6465 0.09953 5.1598 1.4902 7.4512 0.51078 0.84159 0.74595 0.80648 1.293 0.00781 0.10357-0.15118 0.16812-0.33085 0.27344-0.48047 0.60718-0.86233 0.84473-0.88375 1.4844-0.08594 0.72916 0.90946 1.4224 1.8475 2.1504 2.7578 0.37728 0.47165 0.80621 1.1613 1.4629 0.81054 0.61532-0.32779 0.15036-0.97386 0-1.4844-1.3206-4.4833 0.72498-9.372 4.0391-11.684 0.09989 0.48692-0.11872 0.73287-0.22656 1.0117-0.75978 1.9633-1.3426 3.9633-1.1797 6.1055 0.12459 1.6362 0.59047 3.1375 1.75 4.3555 0.49314 0.51792 0.94008 0.51316 1.3262-0.11523 0.1277-0.20793 0.2085-0.44338 0.33203-0.6543 0.75416-1.2879 0.9882-1.3096 1.9473-0.19727 2.0014 2.321 2.0012 2.3225 4.9219 1.3867 0.34802-0.11146 0.68716-0.25624 1.0254-0.39648 7.1647-2.9711 11.891-8.3034 14.422-15.564 1.4002-4.0168 3.0207-7.8689 5.0371-11.631 2.8084-5.2398 6.0883-10.087 9.918-14.588 0.31769-0.37328 0.6232-0.75741 0.96289-1.1094 0.2206-0.22855 0.49898-0.364 0.8125-0.13086 0.29066 0.21613 0.31764 0.47274 0.16797 0.79883-0.58945 1.2836-1.1872 2.5644-1.7324 3.8672-0.24957 0.59534-0.65276 1.2038-0.27539 1.9434 1.0602-0.02697 1.7888-0.7669 2.6543-1.1797 2.5932-1.2367 5.269-2.3284 7.75-3.7637 8.2883-4.7947 14.172-11.759 17.832-20.639 0.44384-1.0766 0.80523-2.1874 1.2539-3.2617 0.15676-0.37541 0.39761-0.84181 0.94336-0.64258 0.40928 0.14928 0.42936 0.55399 0.38086 0.93945-0.58431 4.6422-1.2924 9.256-2.9941 13.65-1.1582 2.9908-2.5277 5.8672-4.3867 8.4922-0.62317 0.88006-0.55675 1.3456 0.16601 1.3516 2.2971 0.01868 4.6191 0.35031 6.7734-0.98242 3.2361-2.002 6.3962-4.0989 9.2168-6.6699 8.4773-7.727 12.396-17.314 11.551-28.838-0.07614-1.0325-0.15747-2.0765 0.08203-3.543 1.5993 4.4002 2.8208 8.4125 3.4453 12.637 1.4451 9.7746-1.2098 18.118-8.1426 25.096-0.25897 0.26063-0.54298 0.50602-0.7539 0.80273-0.39015 0.54858-0.21689 0.90409 0.48437 0.95899 0.54634 0.0427 1.0999 0.01863 1.6484-0.01367 5.0625-0.29772 10.133-0.50594 15.186-0.93164 5.7203-0.48203 11.429-1.1153 17.131-1.7871 1.3323-0.15696 2.7236-0.28586 4.0117-0.77539-0.07492-0.2648-0.07183-0.41278-0.14453-0.48438-0.30422-0.29977-0.61489-0.59857-0.95312-0.85742-7.0068-5.3618-12.579-12.014-17.143-19.537-6.717-11.074-10.972-23.039-12.625-35.932-0.12857-1.0025-0.0372-2.1028-0.69922-3.0039zm290.13 4.7871c-0.38624-0.00349-0.50998 0.36033-0.50195 0.88477 7e-4 0.30791-2.4e-4 0.61608 0.00976 0.92383 0.18224 5.7322 0.92434 11.404 1.9707 17.029 0.95549 5.1363 2.241 10.198 3.8066 15.188 2.3233 7.4041 5.2305 14.57 8.6016 21.543 4.3423 8.9817 9.6394 17.404 15.074 25.74 0.19523 0.2995 0.31755 0.82337 0.9414 0.67382 0.05502-1.8556 0.09835-3.6976-0.07226-5.5391h-0.00391c-0.31273-3.0216-0.33776-6.044 0.00977-9.0644 0.46941-1.9156 0.00865-3.4636-1.6172-4.6894-0.72053-0.54329-1.2474-1.3452-1.8711-2.0215-11.809-12.805-17.31-28.159-18.023-45.422-0.13694-3.3197-0.03734-6.6513-0.02734-9.9766 0.00117-0.68813 0.066-1.3836-0.69727-1.748-2.3722-1.1327-4.7437-2.2671-7.1211-3.3887-0.19172-0.09043-0.34977-0.13164-0.47852-0.13281zm17.541 9.2598c-0.2984 0.01065-0.46613 0.29683-0.54297 0.8457-0.0613 0.42372-0.04078 0.85887-0.05078 1.2891-0.07073 3.9402 0.25693 7.849 0.75976 11.756 0.91238 7.0868 2.4586 14.017 4.8184 20.758 1.3625 3.8917 3.0125 7.6498 5.4336 11.012 0.81848 1.1366 1.6662 2.2605 2.9414 3.0312 0.76438-0.82131 0.79125-1.7939 0.81445-2.7754 0.12915-5.429-0.66668-10.778-1.3652-16.135-0.3328-2.5519-0.88531-5.0743-1.0644-7.6484-1.4687-5.7847-3.2846-11.468-4.918-17.205-0.19329-0.09949-0.33985-0.23138-0.33985-0.47461 0-1e-4 -0.03535-0.01164-0.03515-0.01172-0.71948-0.11295-1.0975-0.73061-1.6289-1.1211-1.3791-1.013-2.7274-2.0732-4.1367-3.041-0.28117-0.19311-0.5065-0.28569-0.68554-0.2793zm12.881 7.2363c-0.24575 0.37781-0.07895 0.71999 0.02539 1.0723 2.3727 8.0143 4.7622 16.025 7.0898 24.053 0.32863 1.1335 1.011 1.7561 2.1621 2.3144 0.78826-2.8277 0.94136-5.5961 1.1934-8.3477 0.33232-3.6269 0.78144-7.2342 2.4375-10.533 0.47339-0.94297 0.09825-1.2878-0.58985-1.7422-3.2228-2.1278-6.5307-4.1068-9.9902-5.8184-0.75648-0.37432-1.466-0.87711-2.3281-0.99804zm23.842 16.223c-0.55699 2.387-0.645 4.7108-0.85156 7.0156-0.40382 4.5047-1.2304 8.8957-3.4082 12.912-0.45856 0.84576-0.33823 1.4014 0.2207 2.1289 2.2481 2.9258 4.106 6.1078 5.8203 9.375 0.39597 0.75471 0.81843 1.4965 1.3672 2.4961 0.62889-1.296 0.77247-2.3923 1.0195-3.4473 1.3768-5.878 2.773-11.746 6.4902-16.695 0.50545-0.67297 0.13426-1.1282-0.24805-1.625-2.7688-3.5974-5.5366-7.1956-8.5586-10.584-0.50788-0.56942-0.97561-1.2357-1.8516-1.5762zm-204.16 16.029c0.4664 2.526-0.08356 4.8666-1.123 7.123-1.1698 2.5106-3.0654 4.4292-5.1602 6.1543-2.0336 1.6712-4.113 3.2955-6.1543 4.959-1.2308 1.0012-2.4767 2.0105-3.4629 3.2812-0.45101 0.56989-1.0329 0.91556-1.7363 0.88476-1.4067-0.0693-2.8064-0.24513-4.0449-0.99218-1.2767-0.77013-1.3381-1.4026-0.1914-2.3652 2.2095-1.856 4.5646-3.4955 6.9805-5.0742 3.1728-2.0794 6.3385-4.1739 9.0449-6.8848 1.7431-1.7482 3.18-3.7289 4.5332-5.7852 0.31343-0.47748 0.41234-1.2007 1.3144-1.3008zm27.623 1.7793c0.87158 4.4205-0.32128 8.1242-3.2188 11.312-2.0642 2.2873-4.5255 4.1284-6.8496 6.123-1.4526 1.2399-2.8749 2.5024-4.0293 4.0195-0.6345 0.82404-1.4081 1.1549-2.3867 1.0625-1.3531-0.13092-2.6676-0.43114-3.8066-1.209-1.0627-0.72392-1.0783-1.2938-0.09961-2.1641 1.5596-1.3862 3.2189-2.6484 4.916-3.8574 3.0886-2.2026 6.3079-4.2282 9.0449-6.9082 2.263-2.2103 4.0966-4.72 5.5644-7.5156 0.16829-0.32343 0.30717-0.67075 0.86524-0.86328zm28.172 3.041-0.03125 0.04688c-1.185 1.779-2.3546 3.5822-3.5625 5.3535-1.7432 2.5337-3.1491 5.2506-4.25 8.1309-0.72625 1.9022-1.7048 3.6676-2.7598 5.4004-0.62685 1.032-1.3986 1.4009-2.5684 1.3008-1.4296-0.12326-2.7834-0.44753-3.9531-1.2793-0.82576-0.5853-0.89479-1.1228-0.1914-1.7852 3.5779-3.3732 6.4533-7.3871 9.8555-10.93 1.873-1.9484 3.9127-3.7044 5.9922-5.4141 0.42814-0.35428 0.87163-0.66963 1.4297-0.78516l0.03906-0.03906zm-91.225 0.58789c-0.11332 0.0056-0.23923 0.03941-0.37109 0.10547-0.27274 0.13664-0.52721 0.31166-0.79297 0.46289-6.8581 3.9017-13.684 7.8589-20.279 12.201-8.3413 5.492-16.455 11.287-23.605 18.34-3.1071 3.065-5.9743 6.3253-8.3574 10.006-0.57589 0.88948-0.77068 1.727-0.46094 2.7734 0.697 2.3549 1.2314 4.7538 1.6875 7.1699 0.34985 1.8532 0.74095 3.6977 1.1758 5.8496 0.65485-0.7102 0.71417-1.2768 0.90039-1.7832 0.72218-1.9644 1.575-3.8605 2.6504-5.6621 2.6184-4.3863 6.1302-7.965 9.9961-11.203 4.6564-3.9002 9.7384-7.213 14.775-10.582 4.7311-3.1645 9.4688-6.3261 13.666-10.211 3.677-3.4035 6.8323-7.1959 8.6543-11.98 0.60505-1.5887 0.4673-3.2692 0.83789-4.8828 0.0877-0.38166-0.13658-0.62031-0.47657-0.60352zm258.45 4.2168c-0.50274 0.87561-0.72831 1.8958-0.98438 2.8887-0.6597 2.5582-1.2267 5.1394-1.8945 7.6953-1.1152 4.2679-2.5708 8.3662-6.1016 11.314-0.44752 0.37379-0.51372 0.76673-0.33594 1.2988 0.93534 2.799 1.5008 5.6974 2.1875 8.8125 1.575-0.83848 2.8755-1.8262 4.1504-2.8516 3.2932-2.6482 6.4452-5.4862 10.035-7.7383 0.71859-0.45103 0.79707-0.95799 0.625-1.6973-1.554-6.6773-3.7816-13.102-7.0039-19.158-0.12256-0.23054-0.178-0.61135-0.67773-0.56445zm-261.71 20.078c-0.12159 0.0119-0.27016-0.01803-0.35156 0.04297-0.2923 0.21867-0.57407 0.4539-0.83789 0.70703-2.9735 2.8531-6.2154 5.3505-9.6953 7.5508-4.9726 3.144-10.236 5.7578-15.352 8.6406-7.6502 4.3113-14.509 9.5303-19.734 16.762-1.0684 1.4783-1.3498 2.8876-1.1914 4.623 0.79863 8.7528-0.02919 17.333-3.0742 25.613-2.4436 6.6447-6.6591 11.483-13.66 13.584-3.3415 1.0025-6.4432 2.6862-9.3613 4.6133-3.034 2.0037-5.788 4.3578-7.5703 7.6367-1.3302 2.4472-2.0029 5.0128-1.1426 7.8027 0.8772 2.8444 3.4994 4.3083 6.1484 3.4102 1.4088-0.47762 1.5482-0.7036 1.0215-2.1348-0.68111-1.8505-0.87108-3.7189-0.26758-5.6055 0.43541-1.361 1.0541-2.6312 2.5606-3.1309l0.08984-0.06055s-0.06649 0.08793-0.0664 0.08789c0.10639 0.44691-0.0611 0.85899-0.20313 1.2578-0.95975 2.6961-0.42977 5.2169 0.91016 7.6191 0.70378 1.2617 1.7298 2.1798 3.084 2.7637 2.4925 1.0744 4.6583 0.16852 6.7695-1.0449 1.3198-0.75861 1.3002-0.82675 0.37695-2.0176-1.1904-1.5355-1.6746-3.2652-1.3496-5.1934 0.25317-1.5023 1.1351-2.5039 2.4668-2.7871-0.22778 2.4664 0.29672 4.7781 1.2969 6.9961 0.65689 1.4565 1.6045 2.5561 3.1699 3.1211 4.0533 1.4632 8.2254 1.8409 12.457 1.3144 6.1914-0.77021 11.94-2.9648 17.477-5.7891 0.82838-0.42248 1.2494-0.95878 1.4863-1.9043l2.5078-12.807c1.1856-6.0936 2.5487-12.153 3.8887-18.215 1.6451-7.4425 3.5408-14.823 5.5059-22.186 1.6328-6.1175 3.3788-12.203 5.2656-18.246 0.10977-0.35177 0.26543-0.69628-0.16406-1.2031-2.7086 1.4214-5.2237 3.2341-7.7363 5.0371-2.49 1.7869-4.8022 3.7967-7.041 5.8984-2.2285 2.0921-4.0753 4.5781-6.5957 6.7285-0.14853-1.2064 0.24158-2 0.47071-2.7988 2.3999-8.3641 7.288-14.792 14.801-19.152 2.3586-1.3688 4.9143-2.1757 7.5801-2.6387 0.94067-0.16335 1.4904-0.59306 1.8125-1.543 1.4017-4.1322 2.8758-8.2399 4.3203-12.357 0.11897-0.33845 0.29377-0.69048-0.07227-0.9961zm71.746 3.9492c-4.4036-0.0389-8.7931 0.32912-13.191 0.41602-0.47261 0.00933-0.99976-0.10244-1.3262 0.41992 0.05028 0.567 0.54067 0.77745 0.89062 1.0996 4.379 4.0324 8.5999 8.2233 12.367 12.85 4.5619 5.6019 8.2299 11.744 10.883 18.492 0.48549 1.235 0.7995 1.2872 1.5332 0.25781 2.0116-2.8224 4.4472-5.2379 7.0801-7.4434 0.87178-0.73027 1.014-1.435 0.70507-2.4082-0.59526-1.8752-1.2798-3.7103-2.1562-5.4766-3.3991-6.851-8.5471-12.234-14.139-17.264-0.79649-0.71641-1.6151-0.93436-2.6465-0.94336zm12.42 0.55664c-0.54692 0.01348-0.99381 0.05949-1.3144 0.14258 0.23669 0.94417 0.99403 1.5256 1.5449 2.2168 4.298 5.3924 8.0748 11.102 10.752 17.504 0.57948 1.3856 0.77543 1.4201 2.1797 0.62305 5.2389-2.9736 10.806-5.0981 16.615-6.6406 1.4186-0.3767 2.9728-0.46321 4.2715-1.3535-2.0616-2.7486-9.4423-6.8821-16.684-9.4062-4.797-1.6721-13.537-3.1803-17.365-3.0859zm-36.381 0.13672c-1.4294-0.00823-3.7756 0.06434-7.8555 0.11133-0.56659 0.04834-0.79896 0.45908-0.81836 0.63086-1.06 1.7427-1.7237 3.6585-2.3535 5.584-0.26615 0.8136-0.61009 1.6001-0.73633 2.4668-0.112 0.76811 0.10477 1.1969 0.88867 1.2656 0.48656 0.0426 0.97507 0.0725 1.4629 0.0957 3.8413 0.18307 7.6721 0.43765 11.432 1.3477 2.9251 0.70806 5.759 1.6291 8.2305 3.4199 1.7671 1.2804 3.0016 2.9478 3.6074 5.3105-1.5081-0.4222-2.6121-1.2105-3.7207-1.9082-4.8608-3.0592-10.178-3.5224-15.699-2.9902-2.5181 0.24269-4.8867 0.98699-7.1816 2.0332-0.80784 0.36831-1.1629 0.88821-1.2559 1.8086-0.23969 2.3822-0.61272 4.7495-0.93555 7.123-0.23853 1.754-0.18428 1.8232 1.5703 2.0215 4.8238 0.54475 9.2781 2.0346 13.111 5.1523 3.7511 3.051 6.6287 6.8576 9.3281 10.824 0.17921 0.26313 0.25151 0.55581 0.19531 0.875 0.04147 0.0221 0.11914 0.048 0.11914 0.0664-0.00891 0.10631-0.06608 0.09235-0.14258-0.03906-1.3625-0.56821-2.5409-1.4594-3.7969-2.2129-3.8371-2.3019-7.7127-4.5232-12.029-5.8047-1.1618-0.34488-2.3247-0.87676-3.5644-0.71289-1.4501 0.19169-2.8711 0.6019-4.3223 0.77735-1.025 0.12389-1.2768 0.62069-1.3262 1.5684-0.19048 3.6263-0.415 7.2508-0.7168 10.869-0.08884 1.0655 0.24002 1.7443 1.0723 2.3359 1.2472 0.88663 2.4813 1.8024 3.6543 2.7852 2.4567 2.058 4.7387 4.2863 6.0332 7.3125 0.58054 1.3571 1.0474 2.7665 0.73828 4.291-0.07189 0.35483-0.12624 0.80251-0.56641 0.85351-0.54466 0.06328-0.74741-0.38149-0.79101-0.82226-0.16839-1.6961-1.2765-2.723-2.4961-3.6914-2.5246-2.0047-5.442-3.2662-8.3594-4.5352-0.95025-0.41331-1.632-0.11753-2.2227 0.66797-1.0357 1.3773-2.2024 2.6362-3.4785 3.791-7.9455 7.1902-17.107 12.2-27.262 15.434-0.53966 0.17215-1.0701 0.27409-1.6191 0.16992-3.0893-0.58614-6.2126-0.41983-9.3262-0.41992-1.1586-5e-5 -2.319 0.10921-3.4766 0.19141-1.3915 0.09886-2.2458 0.77027-2.4238 2.2461-0.12499 1.0366-0.39593 2.0543-0.53516 3.0898-0.13128 0.97527 0.01551 1.1298 0.95899 0.9746 1.0384-0.17081 2.0557-0.29398 3.1308 0.16602-1.0052 0.83279-2.2364 1.0331-3.3379 1.5039-0.98504 0.42088-1.5418 1.0226-1.7051 2.1582-0.20908 1.4539-0.67564 2.8676-0.98829 4.3086-0.15899 0.73243-0.56706 1.1861-1.2246 1.4902-0.83254 0.38507-1.6477 0.80873-2.4668 1.2226-0.43203 0.2183-0.77469 0.5856-0.35352 1 1.5127 1.4883 3.03 2.9952 5.3711 3.6934-0.56785-3.0762 0.50403-5.4903 2.2148-7.668 2.0547-2.6154 4.7686-4.0178 6.7891-3.5039-1.309 1.1999-2.7777 2.1201-3.8809 3.4531-0.91276 1.1031-1.6902 2.268-1.9512 3.7051-0.58044 3.197 0.58164 5.7742 3.4551 7.4824 3.3673 2.0018 6.9113 2.2772 10.564 0.875 0.6937-0.26623 1.366-0.50891 2.123-0.47461 6.3667 0.28813 12.53-0.87243 18.557-2.8066 2.9208-0.93728 5.5779-2.3265 7.832-4.582 3.1268-3.1286 6.7286-5.6992 10.529-7.9648 4.4822-2.6718 9.2632-4.6891 14.098-6.6035 5.7388-2.2726 11.493-4.5063 16.77-7.8105 1.3808-0.86475 2.2808-1.9369 2.8203-3.4551 1.3002-3.6597 2.059-7.4521 2.8555-11.238 0.16257-0.77313-0.05192-1.4488-0.36719-2.1348-1.3853-3.0147-2.742-6.0414-4.2734-8.9863-3.5728-6.8709-8.1411-12.859-14.779-17.027-0.39616-0.24882-0.7839-0.52158-0.99414-1.084 2.9235-0.0107 5.7257 0.14566 8.5293 0.34766 0.68934 0.04969 1.1053 0.43794 1.541 0.87695 5.2607 5.3006 9.425 11.287 11.506 18.586 0.11113 0.38974 0.19546 0.8705 0.76757 0.7832 0.3005-0.23125 0.29857-0.55412 0.38477-0.84179 0.98843-3.3012 2.0898-6.5692 3.7266-9.6035 0.68314-1.2664 0.68215-2.3253 0.14453-3.6387-3.2924-8.0412-7.7914-15.32-13.443-21.879-4.2574-4.9406-8.9641-9.4143-14.045-13.488-1.0718-0.9655-0.9068-1.205-3.2891-1.2188zm223.87 10.635c-0.48269 0.32943-0.78585 0.50761-1.0566 0.72656-1.1439 0.92478-2.2743 1.8653-3.416 2.793-3.2482 2.6394-6.6213 5.0797-10.678 6.3203-0.94426 0.28861-0.95125 0.93219-0.96485 1.7012-0.10134 5.5513-0.7812 11.04-1.7207 16.506-0.18418 1.0711-0.6259 2.1291-0.38281 3.5898 1.5683-1.0197 2.9066-1.8639 4.2188-2.748 4.1821-2.818 8.4203-5.5129 13.574-6.1367 0.93446-0.1131 0.76977-0.79986 0.79687-1.377 0.28763-6.1548 0.27332-12.31-0.04883-18.463-0.04699-0.89656-0.19505-1.7878-0.32226-2.9121zm-86.697 7.9434c-1.0234-0.06288-1.757 0.45991-3.0137 1.7402-4.7171 4.821-7.921 10.598-10.375 16.82-2.8287 7.1699-4.5863 14.647-6.2988 22.133-0.0688 0.30035-0.20696 0.66895 0.24414 1.0078 1.1239-2.2257 2.7525-3.9958 4.0293-6.0059 1.7124-2.7032 3.9911-4.7133 6.6211-6.5 2.607-1.7713 5.3884-2.8333 8.4082-3.4648 5.2522-1.0936 10.207-0.42397 14.771 2.541 0.51224 0.33115 1.2387 0.43917 1.5293 1.2324-2.393 0.10012-4.649 0.09863-6.9043 0.29883-7.1865 0.64693-13.425 3.4591-18.938 8.0645-4.0673 3.3962-7.4151 7.4773-11.031 11.312-1.208 1.2784-1.598 2.5642-1.4375 4.3047 0.89445 9.7499 1.4837 19.509 0.91797 29.312-0.39752 6.8388-1.2235 13.599-3.1348 20.184-1.399 4.8287-3.5711 9.2495-6.6445 13.27-2.0259 2.6416-4.5022 3.604-7.6367 3.3652-0.55041-0.0386-1.1016-0.06016-1.6367-0.16797-3.234-0.65458-6.4592-1.3338-9.6855-1.9961-2.7904-0.56218-5.5972-0.73763-8.3418 0.11719-3.9067 1.2091-6.6347 3.7968-8.2402 7.5781-0.1835 0.43127-0.52035 1.1772 0.06054 1.2774 1.3837 0.24645 1.0863 1.2545 1.1934 2.1094 0.13758 1.1629 0.24329 2.3274 0.38086 3.4902 0.0378 0.33115 3.7e-4 0.75345 0.73438 0.72266 0.41273-1.9715 1.3084-3.7584 2.998-5.0137 1.636-1.2168 3.4078-1.9254 5.709-1.4941-1.3073 1.4478-2.6892 2.4649-3.752 3.8203-1.1238 1.4401-1.8658 3.0416-2.0723 4.8438-0.0843 0.68544-0.32961 1.6253 0.4043 2.0488 0.57337 0.33114 1.0483-0.42393 1.5605-0.70117 0.91741-0.48518 1.215-0.35262 1.3145 0.65625 0.0843 0.92417 0.22084 1.8549 0.13671 2.7637-0.23698 2.3951 1.1854 3.5656 3.0508 4.4512 0.49693 0.23875 1.0094 0.45571 1.5293 0.63281 1.3149 0.43899 1.5756 0.25409 1.2774-1.0859-0.45101-1.9946-0.01013-3.7824 0.97851-5.4844 1.6513-2.8572 5.1154-4.0961 8.1582-2.9102-0.01 0.0539-2.5e-4 0.14475-0.03125 0.16016-0.48927 0.23873-0.9873 0.46264-1.4766 0.7168-2.6682 1.3554-3.8683 3.6436-4.0137 6.5547-0.031 0.47747 0.00991 1.0551 0.44336 1.3555 0.56572 0.38506 0.83286-0.28629 1.2305-0.50195 0.21403-0.11553 0.40681-0.26942 0.61328-0.40039 1.162-0.69308 1.4749-0.54684 1.5742 0.80859 0.0994 1.2861 0.10598 2.5811 0.2207 3.8672 0.14523 1.6096 0.29069 1.6932 1.7969 2.0859 1.269 0.33116 2.5532 0.40121 3.8223 0.18555 4.7782-0.82403 9.3436-0.21644 13.801 1.7012 2.1634 0.93183 4.4638 1.1941 6.8262 0.70117 4.0443-0.84712 7.3484-2.8714 10.055-6.0059 5.2064-6.0378 9.0358-12.977 12.812-19.939 2.1712-3.9893 4.1733-8.0777 6.291-12.105 2.8898-5.491 5.6736-11.044 8.7852-16.412 1.5978-2.7648 3.2423-5.5215 5.2988-7.9551 0.94038-1.1167 1.3687-2.2026 1.3457-3.6582-0.0765-4.2049-0.95578-8.3022-1.4375-12.453-0.20636-1.7713-0.98701-2.8806-2.4473-3.8047-3.4403-2.1718-7.0794-3.889-10.887-5.2598-2.7599-1.0012-5.5511-1.9099-8.334-2.8418-1.4602-0.4929-1.5663-0.76986-0.58008-2.0098 1.3532-1.6943 3.1353-2.495 5.2988-2.418 2.9129 0.10012 5.4497 1.3234 7.8809 2.7559 2.2706 1.34 4.4498 2.8107 6.7051 4.1738 1.0551 0.63151 1.2846 0.49297 1.3457-0.66993 0.13767-2.5183 0.27508-5.0433 0.88672-7.5 0.25994-1.0397-0.14399-1.5782-0.92383-2.125-2.1712-1.5095-4.45-2.8044-6.8047-3.998-4.4342-2.2334-9.1279-3.4662-14.074-3.6973-4.763-0.21566-9.3665 0.66373-13.885 2.127-0.65747 0.21562-1.3147 0.72393-2.1328 0.26954 0.07651-0.23874 0.11406-0.49312 0.23633-0.69336 1.9267-3.3808 4.802-5.4914 8.5176-6.5156 3.4174-0.95495 6.8886-0.925 10.367-0.60156 3.6543 0.33886 7.2005 1.2718 10.74 2.2422 1.3456 0.36966 2.4773 0.90833 3.4941 1.8633 1.5138 1.417 3.0972 2.7734 4.6797 4.1211 1.2309 1.0551 1.5217 0.96234 2.248-0.5625 0.0765-0.16941 0.12879-0.34611 0.21289-0.50781 1.7966-3.3116 2.5545-7.0392 4.1523-10.436 0.47397-1.0165 0.20528-1.8802-0.32226-2.7812h0.00195c-3.188-5.4679-6.5378-10.828-10.23-15.973-3.3638-4.6978-6.9106-9.2488-11.123-13.223-2.24-2.1179-4.6487-4.0037-7.5156-5.2051-0.99772-0.42165-1.716-0.67126-2.3301-0.70898zm85.633 28.332c-1.304 0.41418-2.2131 1.0309-3.1289 1.6133-2.2203 1.4121-4.3955 2.899-6.6348 4.2793-3.007 1.8535-6.1867 3.2226-9.8184 3.0605-0.71085-0.03173-1.1182 0.16767-1.3105 0.92774-0.81355 3.2159-1.668 6.4217-2.5371 9.623-0.22429 0.82603-0.02302 1.3507 0.69336 1.8535 2.024 1.4207 4.1746 2.533 6.5644 3.1816 2.9083 0.78931 5.8823 1.028 8.8711 1.2227 1.8659 0.12151 1.8426 0.16562 2.4707-1.5352 2.141-5.7977 3.3136-11.818 4.0996-17.928 0.25751-2.0013 0.72046-3.981 0.73046-6.2988zm-27.475 33.811c-0.27215 0.03199-0.44692 0.27562-0.61914 0.66406-1.443 3.2557-2.9019 6.502-4.3789 9.7422-0.26207 0.57491-0.29626 0.99952 0.24804 1.4453 3.9216 3.2118 8.1167 5.8796 13.119 7.082 0.9827 0.23624 1.4033 0.01988 1.8086-0.86524 1.5848-3.4609 3.2451-6.8875 4.8613-10.334 0.43869-0.9353 1.0159-1.8122 1.2695-2.8144-0.38153-0.34372-0.81935-0.37747-1.2383-0.41797-5.0982-0.49205-9.9741-1.7437-14.455-4.3184-0.25378-0.14585-0.45194-0.20279-0.61524-0.18359zm-42.688 15.033c0.11937 0.01083 0.25943 0.04986 0.42188 0.12109 4.2508 1.8637 5.4053 6.2151 2.5918 10.02-1.5749 2.1255-2.6691 4.536-4.0606 6.7617-1.3073 2.1102-3.134 3.7511-4.8848 5.4531-0.32873 0.32344-0.75595 0.62376-1.5664 0.40039 3.1575-4.8518 4.3803-10.373 6.498-15.51 0.59633-1.4478 0.29122-3.0356 0.39063-4.5527 0.0378-0.67772-0.01058-1.3554 0.04492-2.0254 0.03413-0.46785 0.20637-0.70047 0.56445-0.66797zm31.73 8.3828c-0.78274 1.3623-1.1933 2.6456-1.6699 3.8965-1.6009 4.2018-2.8259 8.502-3.375 12.986-0.10241 0.83584 0.10674 1.1528 0.91797 1.0938 1.0945-0.07972 2.1925-0.11963 3.2832-0.23437 4.241-0.44636 8.4625-1.2915 12.754-0.60742 0.81132 0.12935 1.0502-0.28541 1.2207-0.98047 0.58587-2.3876 1.3858-4.7103 2.1895-7.0312 0.3858-1.1141 0.37365-1.1521-0.77735-1.5039-2.577-0.78775-5.06-1.7949-7.4414-3.0644-2.4303-1.2955-4.6985-2.8514-7.1016-4.5547zm7.8809 29.826c-0.34992 0.00846-0.70104 0.02793-1.0508 0.06055-3.8824 0.36194-7.7309 1.0723-11.824 1.0566 0.07053 2.3578 0.44352 4.4738 0.86914 6.5801 0.81975 4.0566 2.0721 7.968 4.0352 11.621 0.62336 1.16 0.66698 1.1644 1.7578 0.38477 2.3019-1.6451 4.4158-3.4965 6.1055-5.8008 1.7034-2.3227 3.2253-4.7931 5.3418-6.7832 0.48404-0.45516 0.49486-0.9334 0.27929-1.5-0.52512-1.3807-0.92071-2.803-1.1934-4.2539-0.13005-0.69211-0.43689-1.0258-1.1699-1.1426-1.0503-0.1675-2.1006-0.24803-3.1504-0.22266zm40.01 14.365c-0.20583 0.00934-0.42827 0.038-0.66992 0.09375 1.0765 4.3264 0.11412 8.3349-1.2774 12.326-1.044 2.9954-1.2621 6.1201-0.95508 9.2832 0.15909 1.6386 0.13674 1.6825 1.7109 1.5176 3.7056-0.38823 7.1462-1.5568 10.213-3.7227 1.309-0.92445 2.4455-2.0326 3.2754-3.4336 1.0661-1.7996 1.2833-3.6852 0.5898-5.666-0.3678-1.051-0.8884-2.0261-1.5507-2.918-2.525-3.4002-5.8315-5.7236-9.7657-7.1797-0.47464-0.17561-0.95281-0.32882-1.5703-0.30078zm-25.736 2.498c-0.63568-0.02823-0.95642 0.4004-1.8086 1.543-0.5133 0.68834-1.0133 1.3879-1.5 2.0957-1.7833 2.5936-3.8528 4.9284-6.2344 6.9766-0.92254 0.79354-1.8838 1.5416-3.0273 2.4726 0.41883 0.31548 0.64253 0.51454 0.89453 0.66797 6.3037 3.8371 13.277 5.485 20.492 6.3086 1.1259 0.12857 1.1928 0.04589 1.127-1.252-0.25423-4.983 0.46318-9.8101 2.1582-14.496 0.2082-0.57548 0.3754-1.1736 0.48633-1.7754 0.36361-1.9726 0.05781-2.2523-1.8945-1.8359-3.0254 0.64509-6.0412 0.88181-9.0273-0.21679-0.78969-0.29053-1.2846-0.47134-1.666-0.48829z" style="fill:#f7d306;stroke-width:.99999"/>
 <path d="m566.18 312.11c1.2859 0.20906 2.3536 0.41912 3.4311 0.54645 0.87982 0.10393 1.162 0.57702 0.9987 1.3842-0.20647 1.0205-0.44432 2.0345-0.66861 3.0511-1.0475-0.20517-2.906-2.5946-3.7612-4.9818z" style="fill:#e7e7e7"/>
 <path class="st3" d="m614.06 370.35c-1.1347-1.1133-2.2628-2.2337-3.4095-3.3343-0.24938-0.23928-0.50913-0.58662-0.9302-0.41468-0.43347 0.17697-0.38163 0.63058-0.34375 0.95691 0.29066 2.4995 0.0794 5.03 0.47261 7.5211-0.1246-0.27345-0.32234-0.53616-0.36255-0.82139-0.39035-2.7695-0.24599-5.5495-0.32001-8.2394 0.39268-0.17011 0.56058-0.11138 0.69215 0.0261 1.3868 1.4487 2.9427 2.7302 4.2013 4.3057z" style="stroke-width:.99999"/>
 <path class="st3" d="m617.29 371.43c0.47939 0.81624 0.89183 1.6506 0.79611 2.8792-1.5499-1.2196-2.675-2.5641-3.8819-3.8206 1.1319 0.81995 1.8996 2.067 3.1995 2.8152 0.59769-0.70703-0.13467-1.2742-0.11364-1.8738z" style="stroke-width:.99999"/>
 <path class="st3" d="m927.92 501.83c-0.31556-3.0216-0.34036-6.043 0.01-9.0634 0 3.0216 0 6.0425-0.01 9.0634z" style="stroke-width:.99999"/>
 <path class="st6" d="m660.79 432.95c-0.22962 0.70132-0.45933 1.4026-0.68905 2.1041" style="stroke-width:.99999"/>
 <path class="st1" d="m681.81 540.54c0.16916 0.0492 0.21906 0.2053 0.15725 0.38384-0.0591 0.17214-0.19329 0.31626-0.38764 0.26239-0.0639-0.0177-0.11878-0.20205-0.11394-0.30725 0.01-0.17986 0.0775-0.34781 0.34433-0.33898z" style="stroke-width:.99999"/>
 <path class="st1" d="m683.36 512.74c0.0455-0.10277 0.0688-0.26163 0.14271-0.29136 0.0727-0.0292 0.19765 0.0725 0.29967 0.11686-0.0455 0.10263-0.0678 0.26224-0.14184 0.29181-0.0736 0.0293-0.19813-0.0725-0.30054-0.11731z" style="stroke-width:.99999"/>
 <path class="st3" d="m646.9 478.84c0.24996 0.18135 0.50002 0.36269 0.75018 0.54396-0.39984 0.0284-0.5785-0.25293-0.75018-0.54396z" style="stroke-width:.99999"/>
 <path class="st3" d="m609.86 375.11c0.10628 0.18647 0.21257 0.37293 0.31837 0.55804-0.21509-0.124-0.30703-0.31765-0.31837-0.55804z" style="stroke-width:.99999"/>
 <path class="st0" d="m729.99 743.28c0.16238 6e-3 0.32476 0.0109 0.48724 0.0163-0.10454 0.42389-0.32564 0.77558-0.84523 1.2502 0.1585-0.56091 0.2582-0.91369 0.35799-1.2666z" style="stroke-width:.99999"/>
 <path class="st0" d="m702.75 718.52c0.18805 0.0404 0.28601 0.15982 0.30248 0.35056-0.10086-0.11689-0.20162-0.23375-0.30248-0.35056z" style="stroke-width:.99999"/>
 <path class="st0" d="m922.46 439.57c-0.19319-0.0995-0.34375-0.23019-0.33988-0.47341 0.22759 0.0746 0.33058 0.23988 0.33988 0.47341z" style="stroke-width:.99999"/>
 <polygon class="st0" transform="matrix(.76452 0 0 .77013 478.14 167)" points="426.22 405.07 426.18 405.13 426.17 405.12" style="stroke-width:1.3032"/>
 <polygon class="st0" transform="matrix(.76452 0 0 .77013 478.14 167)" points="172.19 179.14 172.25 179.06 172.26 179.07" style="stroke-width:1.3032"/>
 <path class="st0" d="m680.25 423.88c0.0639-0.18473 0.12809-0.36947 0.19213-0.5542 0.12828 0.2444 0.0484 0.42924-0.16296 0.57623-2e-4 -2.6e-4 -0.0291-0.0221-0.0291-0.0221z" style="stroke-width:.99999"/>
 <path class="st0" d="m766.55 553.65c0.0417 0.0221 0.12052 0.0473 0.11897 0.0658-0.01 0.10626-0.0649 0.0926-0.14165-0.0387 2e-4 -1.4e-4 0.0223-0.027 0.0223-0.027z" style="stroke-width:.99999"/>
 <path d="m599.6 275.85c0.62414 0.60158 1.025 1.2835 1.8338 0.8214 0.56649-0.32368 1.1066-1.9791 0.90404-2.6497-0.37398-1.2381-1.0465-1.6396-2.6374-1.5698-0.22323-0.38024-0.0794-0.71333 0.1774-0.99135 1.0592-1.1458 3.511-1.2898 4.7021-0.28751 0.13922 0.11712 0.28697 0.23209 0.39742 0.37428 0.76404 0.9831 0.63179 4.8735-0.17788 5.853-0.25336 0.30645-0.56591 0.44766-0.94289 0.49205-0.97361 0.11466-1.9476 0.14271-2.9169-0.0261-1.0018-0.1744-1.4615-0.76663-1.3396-2.0163zm-34.902 44.128c0.77838 0 1.5568 7.3e-4 2.3352-1.3e-4 3.3548-4e-3 6.712 0.0717 10.064-0.0313 4.5688-0.1405 9.1005-0.56694 13.403-2.3541 0.64042-0.26603 1.4258-0.98169 2.172-0.14991 0.55486 0.61854 0.40876 2.5865-0.20211 3.3017-0.53306 0.6239-1.2169 1.0249-2.0041 1.222-1.4165 0.35459-2.8422 0.67666-4.3109 0.69737-2.8008 0.0395-5.6186 0.16286-8.3728-0.43818-2.1331-0.46552-4.3107-0.72281-6.4133-1.2686-1.7529-0.45497-3.4863-0.46299-5.2472-0.47629-0.47377-4e-3 -0.94744-5.3e-4 -1.4212-5.3e-4 -7.8e-4 -0.1673 0-0.33461 0-0.50192z" style="fill:#f02424;stroke-width:.99999"/>
 <path class="st1" d="m797.42 773.6" style="stroke-width:.99999"/>
 <path class="st1" d="m996.03 754.12" style="stroke-width:.99999"/>
 <path class="st1" d="m1015.3 709.15" style="stroke-width:.99999"/>
 <style type="text/css">.st0{fill:#323230;}
	.st1{fill:#211D1A;}
	.st2{fill:#008601;}
	.st3{fill:#E7E7E7;}
	.st4{fill:#F7D306;}
	.st5{fill:#E80000;}
	.st6{fill:none;}</style>
</svg>
